<?xml version="1.0" standalone="no"?>
<!DOCTYPE svg PUBLIC "-//W3C//DTD SVG 20010904//EN"
 "http://www.w3.org/TR/2001/REC-SVG-20010904/DTD/svg10.dtd">
<svg version="1.0" xmlns="http://www.w3.org/2000/svg"
 width="1600.000000pt" height="898.000000pt" viewBox="0 0 1600.000000 898.000000"
 preserveAspectRatio="xMidYMid meet">

<g transform="translate(0.000000,898.000000) scale(0.100000,-0.100000)"
fill="#000000" stroke="none">
<path d="M3191 8838 c-6 -79 -16 -172 -21 -208 -10 -73 -23 -280 -46 -730 -8
-168 -19 -372 -24 -455 -5 -82 -10 -204 -10 -270 0 -66 -4 -145 -9 -175 -5
-30 -5 -95 -1 -145 6 -72 7 -79 9 -35 1 30 5 62 10 69 6 9 6 22 0 32 -6 11 -5
20 1 24 5 3 10 -1 10 -10 0 -12 4 -14 17 -7 9 5 34 7 55 5 26 -4 38 -2 38 6 0
8 -8 10 -20 6 -11 -3 -35 -1 -53 6 -27 9 -34 17 -33 38 0 14 -3 36 -7 47 -6
16 -3 23 10 28 10 3 32 14 48 24 17 10 38 17 47 14 20 -5 39 29 20 36 -18 6
-15 82 3 82 11 0 15 -11 15 -40 0 -54 20 -51 22 3 1 34 2 36 5 11 4 -30 6 -31
65 -37 69 -6 98 6 98 40 0 18 6 23 25 23 23 0 25 4 25 40 0 36 -2 40 -25 40
-20 0 -25 5 -25 25 0 22 -4 25 -42 27 -24 0 -59 2 -78 3 -19 0 -62 2 -96 3
-33 1 -69 8 -79 16 -18 13 -18 15 -2 40 10 15 15 31 12 36 -3 6 3 10 14 10 12
0 21 -5 21 -11 0 -6 10 -19 21 -28 19 -15 27 -16 55 -6 19 6 36 14 39 17 3 3
0 28 -7 56 -8 39 -9 58 0 77 14 30 6 55 -18 55 -11 0 -22 -12 -29 -30 -11 -34
-31 -38 -61 -13 -25 22 -25 34 1 67 l20 26 -20 0 c-25 0 -27 13 -6 30 8 7 15
22 15 34 0 30 48 52 69 31 12 -12 13 -17 3 -27 -14 -14 -16 -74 -3 -82 9 -6
21 48 21 95 0 37 18 48 88 55 53 6 61 9 65 30 2 13 0 24 -5 24 -5 0 -8 24 -6
53 l3 52 43 3 c23 2 42 7 42 13 0 14 73 10 93 -6 25 -19 47 -8 47 22 0 22 -4
25 -27 21 l-28 -4 -3 83 -2 83 50 0 c45 0 50 -2 50 -22 0 -12 3 -19 6 -15 4 3
13 0 21 -8 8 -8 21 -15 30 -15 12 0 13 6 7 28 -4 15 -7 42 -6 61 3 39 -17 91
-34 91 -7 0 -14 9 -17 21 -4 15 0 23 14 26 10 3 19 13 19 22 0 13 -17 23 -60
37 -59 19 -70 32 -52 61 9 14 38 16 95 7 33 -5 37 -4 37 14 0 11 8 34 17 51
17 29 17 30 -7 56 -43 47 -81 70 -90 55 -4 -7 -12 -10 -18 -6 -13 8 4 66 19
66 5 0 9 7 9 15 0 8 -5 15 -10 15 -15 0 -1 70 17 88 7 7 13 26 13 42 0 16 5
30 12 32 9 3 9 13 2 39 -11 38 -44 54 -44 20 0 -27 -30 -28 -37 -1 -5 17 -14
20 -68 20 -54 0 -63 -3 -68 -20 -3 -12 -14 -20 -27 -20 -17 0 -20 4 -15 20 6
19 2 20 -128 20 l-134 0 -12 -142z m200 -231 c-8 -8 -11 -7 -11 4 0 20 13 34
18 19 3 -7 -1 -17 -7 -23z m289 13 c0 -5 -4 -10 -10 -10 -5 0 -10 5 -10 10 0
6 5 10 10 10 6 0 10 -4 10 -10z m-300 -64 c0 -8 -4 -18 -10 -21 -5 -3 -10 3
-10 14 0 12 5 21 10 21 6 0 10 -6 10 -14z m-203 -178 c-3 -8 -6 -5 -6 6 -1 11
2 17 5 13 3 -3 4 -12 1 -19z m459 -35 c-11 -11 -19 6 -11 24 8 17 8 17 12 0 3
-10 2 -21 -1 -24z m-332 -8 c-4 -9 0 -15 9 -15 8 0 18 6 20 13 3 6 6 2 6 -10
1 -30 -16 -38 -38 -19 -10 9 -21 13 -25 9 -13 -13 -25 20 -15 39 8 14 14 16
29 8 11 -6 17 -16 14 -25z m-127 -117 c-3 -8 -6 -5 -6 6 -1 11 2 17 5 13 3 -3
4 -12 1 -19z m243 2 c0 -5 -4 -10 -10 -10 -5 0 -14 -15 -19 -32 -9 -31 -9 -32
-10 -6 -1 14 2 33 5 42 7 17 34 22 34 6z m305 -39 c3 -5 1 -12 -5 -16 -5 -3
-10 1 -10 9 0 18 6 21 15 7z m-285 -31 c0 -5 -4 -10 -9 -10 -6 0 -13 5 -16 10
-3 6 1 10 9 10 9 0 16 -4 16 -10z m-58 -65 c-2 -14 -8 -25 -13 -25 -10 0 -12
43 -3 53 13 12 21 -3 16 -28z m-18 -117 c4 -17 2 -28 -4 -28 -5 0 -10 14 -10
32 0 36 4 35 14 -4z m-17 -100 c-3 -7 -5 -2 -5 12 0 14 2 19 5 13 2 -7 2 -19
0 -25z m3 -32 c0 -8 -4 -18 -10 -21 -5 -3 -10 3 -10 14 0 12 5 21 10 21 6 0
10 -6 10 -14z m-177 -571 c7 -18 -6 -27 -27 -19 -17 7 -20 16 -9 27 11 12 31
8 36 -8z"/>
<path d="M3790 8970 c0 -5 5 -10 10 -10 6 0 10 5 10 10 0 6 -4 10 -10 10 -5 0
-10 -4 -10 -10z"/>
<path d="M3786 8869 c-9 -49 -7 -147 4 -154 6 -4 10 28 10 89 0 53 -2 96 -4
96 -2 0 -6 -14 -10 -31z"/>
<path d="M3756 8802 c-4 -13 -5 -26 -2 -29 10 -11 18 4 14 29 l-4 23 -8 -23z"/>
<path d="M3732 7898 c1 -113 2 -117 8 -53 11 106 11 175 0 175 -6 0 -9 -46 -8
-122z"/>
<path d="M3660 7929 c0 -6 7 -17 15 -25 16 -16 19 -7 9 20 -7 18 -24 22 -24 5z"/>
<path d="M13386 7789 c-27 -4 -52 -12 -55 -18 -14 -22 -89 -44 -156 -47 -59
-2 -82 -8 -138 -38 -63 -33 -72 -35 -130 -30 -34 4 -66 10 -71 15 -14 12 -39
11 -31 -1 3 -5 -1 -10 -9 -10 -9 0 -16 4 -16 9 0 14 -35 19 -56 8 -28 -15 -51
-41 -56 -63 -3 -15 -10 -18 -42 -16 -27 3 -36 0 -31 -8 7 -11 1 -27 -25 -80
-11 -24 -35 -18 -38 10 -9 68 -42 11 -42 -72 0 -21 -5 -38 -10 -38 -6 0 -9
-12 -8 -27 2 -27 -16 -72 -33 -83 -13 -9 -27 -110 -17 -117 6 -3 14 1 19 8 6
10 9 3 7 -21 -1 -19 2 -46 6 -59 5 -15 4 -26 -4 -31 -10 -6 -8 -15 9 -36 25
-31 15 -42 -20 -23 -22 12 -22 11 2 -19 13 -16 32 -32 41 -35 16 -5 21 -12 34
-55 3 -10 12 -9 39 8 24 15 44 20 68 16 21 -3 53 2 88 15 47 18 67 20 149 15
65 -5 107 -13 133 -26 42 -22 87 -25 168 -10 144 26 239 28 291 4 21 -9 38
-22 38 -28 0 -6 13 -25 29 -43 24 -28 28 -41 30 -103 2 -57 -1 -70 -13 -70 -9
0 -16 -8 -16 -17 0 -9 -7 -25 -17 -35 -10 -11 -12 -18 -5 -19 7 -1 16 -2 22
-3 5 0 15 -9 23 -20 8 -10 20 -17 27 -14 8 2 37 -8 66 -23 42 -21 54 -24 58
-13 8 21 79 18 99 -4 10 -10 17 -24 17 -31 0 -9 8 -11 25 -7 20 5 25 3 25 -14
0 -11 14 -33 31 -50 28 -27 30 -32 21 -60 -15 -41 -6 -58 32 -68 27 -8 31 -13
29 -39 -2 -20 3 -33 12 -37 19 -7 19 -45 0 -52 -10 -4 -15 -20 -15 -46 0 -25
-8 -50 -20 -66 -15 -18 -18 -28 -10 -36 8 -8 15 -6 24 7 7 9 15 17 18 17 6 0
3 -78 -4 -85 -4 -4 -4 -30 -1 -58 3 -38 1 -57 -11 -72 -15 -19 -17 -19 -30 -2
-7 9 -21 17 -30 17 -16 0 -16 2 -2 15 14 14 12 45 -3 45 -24 -1 -33 -22 -32
-75 0 -32 2 -60 5 -62 2 -3 -2 -23 -10 -45 -8 -22 -14 -49 -14 -60 0 -43 -49
-123 -92 -151 -24 -15 -63 -45 -87 -67 -25 -22 -54 -40 -66 -40 -27 0 -50 -24
-39 -41 5 -8 -1 -10 -20 -7 -14 3 -26 1 -26 -3 0 -5 -8 -9 -17 -9 -9 0 -25 -8
-35 -17 -22 -19 -42 -6 -43 28 0 15 -11 25 -40 34 -46 16 -82 11 -88 -13 -3
-12 -5 -10 -6 6 -1 13 -7 22 -16 22 -22 0 -75 -28 -75 -40 0 -6 -16 -4 -37 4
-31 12 -99 24 -168 31 -37 4 -85 29 -91 48 -4 12 -15 33 -26 47 -11 14 -33 45
-50 69 -22 31 -32 40 -38 31 -7 -11 -13 -10 -34 3 -14 9 -27 17 -28 17 -2 0
-4 -17 -5 -37 -2 -43 -22 -66 -54 -63 -13 1 -55 3 -94 5 -38 2 -117 9 -174 15
-57 6 -110 9 -117 6 -19 -7 -17 -43 6 -91 16 -35 17 -40 3 -43 -20 -5 -14 -56
22 -173 31 -103 38 -129 66 -246 12 -51 25 -93 30 -93 5 0 6 12 3 26 -12 48
20 21 38 -31 9 -27 25 -56 37 -64 12 -7 21 -20 21 -27 0 -8 8 -14 18 -15 10 0
12 -3 5 -6 -7 -2 -13 -11 -13 -18 0 -7 -15 -24 -34 -39 -34 -26 -76 -116 -54
-116 7 0 8 -14 4 -39 -3 -23 -2 -42 4 -46 5 -3 10 -13 10 -22 0 -15 129 -159
158 -177 8 -5 24 -4 39 3 16 7 29 8 37 2 10 -9 178 3 195 14 5 2 52 5 106 6
142 2 142 1 72 -153 -30 -68 -59 -134 -62 -148 -4 -14 -27 -65 -51 -115 -47
-99 -36 -89 -213 -182 -40 -21 -106 -68 -147 -105 -79 -73 -106 -88 -228 -137
-190 -76 -346 -247 -452 -496 -25 -60 -57 -131 -70 -156 -16 -31 -24 -64 -24
-98 0 -47 -35 -151 -86 -256 -41 -82 -57 -195 -60 -409 -3 -180 -7 -231 -34
-377 -16 -93 -30 -183 -31 -201 -1 -18 -5 -44 -9 -58 l-8 -25 -7 23 c-4 12
-12 22 -19 23 -73 7 -71 8 -74 -49 -3 -55 8 -82 35 -82 8 0 17 9 20 20 7 25
15 25 31 0 25 -41 4 -125 -68 -270 -118 -237 -129 -281 -180 -735 -11 -99 -20
-197 -20 -217 0 -21 -9 -61 -20 -90 -11 -29 -20 -56 -20 -60 0 -5 326 -8 725
-8 l725 0 0 70 c0 39 2 70 5 70 17 0 65 -33 65 -44 0 -7 -7 -30 -15 -49 -8
-20 -15 -39 -15 -42 0 -3 731 -5 1625 -5 l1625 0 0 2025 0 2024 -37 11 c-21 5
-56 13 -78 16 -63 10 -173 65 -261 130 -124 92 -150 100 -459 145 -114 16
-179 31 -193 42 -7 6 -64 85 -127 176 -62 92 -135 187 -162 212 -45 43 -105
70 -120 55 -4 -4 -1 -42 6 -86 15 -88 8 -182 -15 -214 -8 -11 -14 -28 -14 -38
0 -9 -9 -20 -20 -23 -11 -3 -23 -17 -26 -31 -4 -17 -13 -24 -30 -24 -13 0 -24
-6 -24 -13 0 -24 -47 -55 -89 -59 l-41 -4 0 38 c0 21 -4 38 -10 38 -5 0 -10
14 -10 31 0 17 -7 54 -17 83 -9 28 -18 58 -21 66 -3 8 -7 48 -9 88 -3 46 -11
86 -23 107 -20 35 -27 99 -15 128 4 9 4 25 0 35 -4 9 -9 25 -10 34 -2 23 -46
68 -66 68 -9 0 -22 7 -29 15 -12 14 -15 14 -36 0 -36 -23 -42 -19 -46 33 -5
56 7 89 27 72 10 -9 15 -6 20 12 4 12 14 28 21 36 8 7 12 18 9 23 -7 10 28 12
73 3 27 -6 29 -9 19 -25 -9 -14 -9 -21 1 -31 11 -11 16 -9 28 7 8 11 22 20 32
20 9 0 18 9 20 20 2 11 20 35 40 53 19 18 33 34 30 37 -2 2 -22 0 -44 -6 -86
-24 -194 -12 -194 21 0 4 21 33 47 65 38 46 44 58 32 66 -11 7 -3 19 38 59 45
44 57 50 93 50 l42 0 -32 36 c-60 69 -63 124 -5 80 19 -15 45 -26 59 -26 28 0
36 -26 14 -48 -9 -9 -9 -12 1 -12 21 0 68 57 75 91 19 96 -12 138 -120 162
-64 15 -114 39 -114 56 0 11 35 4 68 -12 20 -10 26 -8 43 13 15 20 18 35 13
73 -5 43 -4 47 16 47 36 0 87 -47 94 -86 4 -19 16 -62 27 -96 26 -82 25 -143
-5 -198 -25 -48 -109 -120 -139 -120 -10 0 -32 -7 -48 -16 -25 -12 -28 -18
-18 -30 15 -18 55 -18 63 1 6 17 36 21 36 4 0 -6 -9 -13 -20 -16 -28 -7 -25
-33 4 -33 36 0 129 97 151 156 10 27 22 54 25 59 4 6 10 23 14 40 4 16 16 47
26 70 28 61 33 107 19 172 -28 131 -84 193 -174 193 -58 0 -76 -10 -142 -81
-25 -27 -51 -49 -58 -49 -7 0 -18 -13 -25 -30 -13 -32 -18 -34 -39 -21 -20 13
-5 46 36 77 20 15 61 51 91 81 64 62 107 78 167 62 61 -17 110 -62 146 -134
49 -101 49 -175 -1 -340 -10 -33 -26 -87 -35 -120 -35 -123 -71 -174 -113
-160 -19 5 -60 -31 -81 -72 -10 -19 -9 -23 4 -23 18 0 19 -12 3 -28 -9 -9 -8
-12 4 -12 9 0 18 6 21 13 4 10 7 10 18 0 7 -7 33 -13 57 -13 l43 0 -2 -98 c-3
-148 17 -163 57 -42 14 41 54 131 88 200 102 204 139 327 156 533 6 71 15 150
21 175 25 117 33 211 35 397 1 164 5 214 22 279 11 43 25 82 32 86 9 5 6 19
-9 53 -12 25 -21 51 -21 57 0 6 -10 34 -22 62 -21 49 -21 51 -3 64 18 13 18
14 -3 14 -13 0 -25 8 -28 18 -3 9 -9 24 -14 33 -11 21 -3 29 29 29 l26 0 -30
18 c-40 25 -56 46 -64 84 -5 25 -13 34 -39 40 -18 5 -32 14 -32 21 0 7 -23 31
-50 55 -28 24 -50 49 -50 55 0 14 -35 47 -50 47 -6 0 -10 3 -10 8 0 11 -58 34
-70 27 -5 -3 -10 2 -10 12 -1 22 -35 48 -78 57 -17 4 -35 13 -39 21 -13 22
-80 57 -88 45 -9 -15 -25 -2 -25 21 0 10 -7 19 -15 19 -9 0 -15 -9 -15 -21 0
-13 -5 -19 -12 -15 -7 3 -21 9 -30 12 -10 4 -18 10 -18 14 0 5 8 11 18 13 10
3 4 5 -13 6 -16 1 -48 13 -70 26 -49 31 -72 31 -131 3 -43 -21 -46 -22 -55 -5
-6 9 -16 17 -23 17 -7 0 -25 9 -39 20 -22 18 -29 19 -47 8 -11 -7 -23 -21 -26
-31 -4 -13 -14 -17 -32 -15 -21 2 -28 9 -30 31 -3 28 -17 37 -24 15 -3 -7 -9
-8 -18 -3 -7 4 -47 9 -89 10 -58 2 -85 -2 -113 -17 -38 -18 -38 -18 -38 2 0
16 7 20 33 21 27 0 29 2 12 9 -24 10 -25 10 -89 -1z m274 -98 c0 -5 -7 -11
-14 -14 -10 -4 -13 -1 -9 9 6 15 23 19 23 5z m247 -67 c-3 -3 -12 -4 -19 -1
-8 3 -5 6 6 6 11 1 17 -2 13 -5z m529 -85 c8 -6 11 -15 9 -19 -5 -9 -103 -40
-124 -40 -21 0 -11 39 17 59 28 22 72 22 98 0z m-1812 -56 c-10 -50 -14 -57
-24 -47 -6 6 -5 21 2 42 15 39 31 42 22 5z m-88 -93 l-15 -35 -1 32 c0 17 5
44 12 60 l12 28 3 -25 c2 -14 -3 -41 -11 -60z m1699 60 c3 -5 -1 -10 -9 -10
-9 0 -16 5 -16 10 0 6 4 10 9 10 6 0 13 -4 16 -10z m383 -57 c5 -18 -37 -16
-68 2 -24 15 -24 15 19 13 25 -2 46 -9 49 -15z m112 -187 c0 -3 -4 -8 -10 -11
-5 -3 -10 -1 -10 4 0 6 5 11 10 11 6 0 10 -2 10 -4z m71 -95 c13 -11 21 -23
16 -27 -9 -9 -77 22 -77 36 0 17 36 11 61 -9z m4 -102 c12 -19 -5 -23 -22 -6
-16 16 -16 17 -1 17 9 0 20 -5 23 -11z m-1078 -351 c-16 -10 -21 -2 -13 19 6
15 9 15 16 3 6 -9 5 -17 -3 -22z m123 -113 c0 -5 -5 -3 -10 5 -5 8 -10 20 -10
25 0 6 5 3 10 -5 5 -8 10 -19 10 -25z m218 -574 c10 -6 12 -23 7 -68 -7 -59
-7 -60 18 -67 36 -9 63 -52 72 -113 6 -45 4 -54 -10 -60 -12 -4 -23 1 -34 15
-9 12 -21 18 -26 14 -22 -15 -44 -90 -48 -163 -2 -48 -10 -85 -20 -99 l-16
-23 -8 29 c-4 16 -7 141 -6 278 1 196 4 250 15 257 17 11 39 11 56 0z m482
-106 c0 -13 -4 -27 -10 -30 -6 -4 -10 8 -10 30 0 22 4 34 10 30 6 -3 10 -17
10 -30z m-663 -57 c-3 -8 -6 -5 -6 6 -1 11 2 17 5 13 3 -3 4 -12 1 -19z m324
-207 l29 -6 -36 -24 c-23 -16 -38 -21 -45 -14 -13 13 0 65 14 56 6 -3 23 -9
38 -12z m-91 -102 c0 -5 -4 -9 -10 -9 -5 0 -10 7 -10 16 0 8 5 12 10 9 6 -3
10 -10 10 -16z m-1286 -36 c8 -16 23 -36 33 -45 27 -25 40 -42 47 -65 3 -10
15 -28 25 -39 10 -11 21 -38 25 -59 6 -36 5 -38 -8 -22 -32 41 -118 95 -161
101 -24 4 -58 14 -75 22 -25 13 -29 19 -19 30 6 8 17 14 25 14 7 0 17 6 21 13
4 6 17 17 28 23 11 6 21 21 23 33 5 29 19 26 36 -6z m1696 -45 c0 -19 -2 -20
-10 -8 -13 19 -13 30 0 30 6 0 10 -10 10 -22z m-2050 -157 c0 -5 -9 -13 -20
-16 -12 -4 -36 -22 -55 -41 l-35 -34 -6 25 c-10 39 28 75 78 75 21 0 38 -4 38
-9z m637 -85 c4 -3 -5 -6 -18 -6 -13 0 -37 -7 -53 -15 -36 -19 -36 -19 -36 9
0 22 3 24 50 21 28 -1 54 -5 57 -9z m-419 -54 c19 -6 4 -16 -87 -60 -95 -46
-116 -53 -149 -47 -34 5 -40 3 -50 -17 -9 -20 -11 -15 -11 34 -1 31 4 60 10
63 5 4 40 9 77 11 37 2 81 8 97 13 35 11 80 12 113 3z m206 -118 c16 -12 16
-13 -1 -33 -9 -12 -25 -21 -34 -21 -9 0 -22 -6 -28 -14 -16 -19 -70 -31 -83
-18 -6 6 5 25 34 54 45 47 79 56 112 32z m-62 -119 c-1 -5 17 -13 40 -18 24
-4 53 -9 65 -11 51 -9 59 -36 12 -36 -25 0 -29 -3 -21 -13 6 -7 8 -17 4 -23
-15 -21 -63 -44 -91 -44 -16 0 -36 -6 -43 -14 -12 -11 -17 -11 -32 0 -13 9
-24 10 -37 4 -27 -15 -48 -12 -106 12 -42 17 -53 27 -53 44 0 31 81 84 130 84
20 0 45 7 56 15 21 16 81 16 76 0z m2188 -598 c15 -30 20 -56 17 -87 -3 -38
-5 -41 -12 -22 -4 13 -18 27 -30 32 -18 7 -23 16 -22 44 1 20 5 36 10 36 5 0
6 12 3 26 -10 37 9 22 34 -29z m-1779 -160 c7 -26 17 -47 22 -47 5 0 6 -9 2
-19 -3 -11 -1 -23 6 -26 8 -6 7 -10 -2 -16 -11 -7 -11 -13 3 -36 9 -16 20 -58
24 -93 7 -66 31 -120 66 -154 11 -10 17 -24 14 -31 -2 -7 10 -27 28 -44 31
-30 38 -32 107 -33 41 0 88 -6 104 -13 24 -9 120 -17 220 -16 28 0 83 9 94 15
6 4 15 5 20 2 14 -9 41 4 41 19 0 8 17 16 40 20 22 4 40 11 40 16 0 5 8 9 18
9 9 0 40 12 67 25 28 14 55 25 62 25 6 0 13 5 15 12 3 9 16 8 51 -3 45 -14 47
-16 30 -33 -10 -9 -52 -42 -93 -73 -107 -78 -140 -112 -140 -143 0 -21 -18
-39 -94 -96 -98 -73 -264 -242 -292 -297 -37 -73 -40 -73 -113 -9 -36 31 -71
62 -77 68 -7 6 -25 22 -41 35 -17 14 -38 38 -49 55 -10 16 -50 72 -90 124
-111 148 -121 176 -83 239 46 76 34 307 -25 481 -14 41 -28 95 -31 120 l-6 45
24 -41 c13 -22 30 -61 38 -87z m-448 -449 c-3 -16 -9 -28 -14 -28 -4 0 -3 14
3 31 12 36 18 35 11 -3z m-44 -135 c-12 -43 -27 -86 -34 -96 -12 -17 -13 -17
-18 3 -6 23 2 60 12 60 4 0 18 30 31 67 31 88 37 65 9 -34z m-68 -166 c-8 -8
-11 -4 -11 14 0 33 14 47 18 19 2 -12 -1 -27 -7 -33z m1049 -587 c0 -5 -4 -10
-10 -10 -5 0 -10 5 -10 10 0 6 5 10 10 10 6 0 10 -4 10 -10z m-2180 -1345 c0
-13 -4 -27 -10 -30 -6 -4 -10 8 -10 30 0 22 4 34 10 30 6 -3 10 -17 10 -30z
m2124 -908 c-6 -18 -34 -31 -34 -17 0 5 5 21 12 35 9 21 13 23 20 11 4 -8 5
-21 2 -29z"/>
<path d="M3732 7735 c0 -16 2 -22 5 -12 2 9 2 23 0 30 -3 6 -5 -1 -5 -18z"/>
<path d="M3215 7720 c3 -5 8 -10 11 -10 2 0 4 5 4 10 0 6 -5 10 -11 10 -5 0
-7 -4 -4 -10z"/>
<path d="M3570 7691 c0 -5 7 -14 15 -21 13 -10 15 -9 15 9 0 12 -6 21 -15 21
-8 0 -15 -4 -15 -9z"/>
<path d="M3693 7685 c-16 -17 -17 -42 -2 -50 7 -5 3 -14 -10 -26 -12 -11 -21
-28 -21 -39 0 -10 -14 -30 -32 -45 -25 -21 -29 -28 -17 -36 23 -15 69 -11 69
6 0 8 4 15 8 15 12 0 36 76 28 89 -4 5 -1 19 5 29 12 19 5 72 -9 72 -4 -1 -13
-7 -19 -15z"/>
<path d="M12535 7590 c-3 -5 -3 -15 1 -21 6 -11 23 6 24 24 0 10 -18 9 -25 -3z"/>
<path d="M3675 7453 c-12 -11 -15 -25 -11 -48 7 -37 -1 -68 -16 -59 -6 4 -7
28 -3 60 7 57 -4 71 -23 29 -10 -21 -18 -25 -56 -25 l-44 0 0 -40 c-1 -36 2
-40 18 -35 22 7 48 -29 29 -40 -6 -4 -9 -30 -7 -64 3 -50 1 -56 -16 -53 -15 3
-17 0 -11 -15 16 -37 15 -69 -3 -127 l-19 -59 -11 31 c-7 20 -16 30 -29 29
-12 -1 -19 6 -21 21 -2 15 2 22 12 22 9 0 16 -4 16 -10 0 -5 5 -10 10 -10 6 0
10 18 10 40 0 38 -13 54 -23 28 -4 -9 -8 -9 -14 -3 -13 16 -74 16 -89 0 -19
-18 -18 -22 8 -28 17 -5 19 -9 9 -21 -9 -11 -9 -15 1 -18 10 -4 10 -8 -1 -21
-18 -23 -31 -21 -31 3 0 26 -22 26 -45 0 -17 -19 -17 -20 9 -30 33 -12 56 -34
56 -52 0 -7 7 -26 15 -41 8 -15 17 -43 21 -62 4 -21 12 -35 21 -35 11 0 12 8
7 38 -4 20 -12 40 -17 44 -7 4 -7 11 0 20 6 7 13 24 16 38 2 15 5 5 7 -25 l2
-50 16 48 c22 65 36 60 28 -10 -4 -32 -10 -88 -14 -125 -9 -84 -28 -110 -38
-50 -4 23 -10 42 -15 42 -5 0 -9 -4 -9 -10 0 -5 -13 -10 -30 -10 -32 0 -37 -9
-18 -40 10 -15 9 -24 -2 -44 -7 -14 -19 -26 -27 -26 -8 0 -13 -12 -13 -34 0
-19 -9 -53 -20 -77 -35 -78 -23 -128 29 -130 15 0 20 -3 14 -6 -22 -8 -14 -33
13 -43 18 -7 24 -15 20 -26 -3 -9 -6 -18 -6 -20 0 -2 -6 -4 -14 -4 -8 0 -17
11 -20 25 -8 31 -36 33 -76 4 -22 -17 -36 -20 -63 -15 -39 7 -87 -10 -87 -31
0 -7 -4 -13 -10 -13 -5 0 -11 -8 -11 -17 -1 -10 -7 7 -14 37 -11 49 -13 24
-14 -235 -3 -461 -10 -810 -21 -950 -11 -137 -27 -425 -37 -662 -6 -150 -3
-159 37 -133 13 8 12 10 -2 10 -28 0 -29 94 -2 135 8 12 11 25 7 28 -3 4 6 7
20 7 22 0 27 5 27 24 0 13 -5 26 -11 28 -5 2 -13 22 -16 45 -5 39 -4 40 20 36
29 -6 70 13 61 28 -3 6 -15 9 -25 6 -28 -7 -24 18 7 42 33 26 60 27 60 4 1
-10 2 -22 4 -28 7 -28 -1 -65 -15 -65 -21 0 -19 -19 3 -26 53 -17 62 -27 62
-66 0 -25 4 -38 14 -38 9 0 16 -17 20 -49 5 -41 12 -52 43 -74 41 -29 63 -23
63 19 0 20 -5 24 -31 24 -33 0 -64 23 -54 41 4 6 19 8 34 5 14 -3 20 -3 14 0
-15 7 -17 34 -3 34 15 0 12 32 -5 54 -14 18 -13 71 1 116 5 13 6 13 14 0 7
-10 10 14 9 70 0 97 -8 160 -18 160 -13 0 -30 -65 -26 -99 3 -22 -1 -38 -9
-45 -8 -6 -16 -20 -18 -31 -4 -27 -48 -33 -65 -9 -11 15 -10 19 7 31 11 8 19
20 18 28 -2 7 7 22 20 33 18 16 22 31 23 78 2 75 18 97 60 81 37 -14 49 0 49
56 0 40 13 47 41 21 17 -15 19 -14 34 22 21 51 45 158 45 203 0 20 7 64 16 96
9 33 24 96 33 141 11 55 20 79 28 77 7 -3 17 7 23 22 11 29 2 132 -12 141 -16
10 -37 -17 -44 -55 -3 -20 -12 -55 -20 -78 -8 -26 -11 -60 -8 -87 5 -32 2 -50
-10 -67 -9 -13 -16 -43 -16 -67 0 -38 -2 -43 -15 -32 -8 7 -12 16 -9 21 3 5 2
14 -1 20 -9 14 -54 -47 -50 -69 1 -9 0 -12 -2 -6 -2 7 -16 14 -31 18 -15 3
-34 10 -42 16 -13 8 -13 11 -1 19 10 6 12 22 9 54 -6 51 6 82 21 58 8 -12 11
-8 17 15 4 16 12 32 18 36 7 5 4 13 -10 22 -26 19 -38 56 -18 56 8 0 14 7 14
16 0 8 4 13 9 9 13 -7 24 12 31 55 5 31 9 35 33 32 33 -3 35 13 7 63 -11 20
-20 45 -20 56 0 12 -8 23 -20 26 -24 6 -26 28 -4 37 9 3 12 11 8 18 -5 7 -7
26 -6 43 1 16 -5 39 -13 50 -14 17 -17 18 -25 5 -8 -13 -10 -13 -10 1 0 23 26
44 33 27 3 -8 9 -2 16 15 6 15 14 27 19 27 5 0 14 12 21 27 9 20 15 23 23 15
7 -7 27 -12 45 -12 23 0 33 -5 33 -15 0 -8 9 -15 19 -15 10 0 21 7 25 15 9 24
-5 47 -25 42 -10 -3 -20 2 -24 10 -4 12 -14 14 -40 10 -19 -3 -34 -3 -34 1 3
20 -3 32 -15 32 -17 0 -21 5 -30 43 -5 22 -3 27 13 27 20 0 31 25 31 74 0 16
8 34 17 41 13 9 16 25 14 57 -2 32 3 51 19 71 26 33 37 34 51 3 8 -17 8 -29
-1 -45 -13 -25 -5 -61 15 -61 19 0 24 21 12 48 -8 17 -8 25 1 31 7 4 16 25 19
46 6 38 6 38 -24 32 -33 -7 -50 6 -71 55 -7 17 -7 28 -1 30 18 6 -2 38 -27 44
-26 7 -34 34 -10 34 11 0 14 18 14 88 -1 60 4 99 15 125 9 21 14 43 11 50 -2
7 2 30 11 52 8 22 14 30 11 19 -6 -35 7 -46 38 -35 50 20 42 71 -13 71 -19 0
-22 3 -12 9 8 5 20 7 28 4 18 -7 17 22 -2 37 -27 22 -19 79 16 111 17 16 34
29 38 29 9 0 31 61 31 87 0 11 -7 26 -16 34 -8 7 -13 21 -11 31 6 22 3 23 -18
1z m-245 -717 c0 -3 -4 -8 -10 -11 -5 -3 -10 -1 -10 4 0 6 5 11 10 11 6 0 10
-2 10 -4z m8 -124 c2 -62 1 -71 -13 -66 -13 5 -15 16 -9 60 4 36 3 54 -5 54
-5 0 -8 7 -4 15 13 36 28 5 31 -63z m92 1 c0 -5 -4 -15 -10 -23 -11 -18 -25
-7 -17 15 6 15 27 21 27 8z m10 -109 c0 -2 -7 -4 -15 -4 -8 0 -15 4 -15 10 0
5 7 7 15 4 8 -4 15 -8 15 -10z m-130 -54 c0 -27 -4 -50 -10 -50 -5 0 -10 23
-10 50 0 28 5 50 10 50 6 0 10 -22 10 -50z m-50 14 c0 -9 -5 -14 -12 -12 -18
6 -21 28 -4 28 9 0 16 -7 16 -16z m-175 -154 c3 -6 -1 -13 -10 -16 -19 -8 -30
0 -20 15 8 14 22 14 30 1z m181 -122 c-3 -40 -6 -88 -6 -105 0 -22 -5 -33 -15
-33 -19 0 -65 -21 -65 -31 0 -4 10 -5 23 -2 18 5 20 3 10 -8 -7 -7 -13 -25
-13 -40 0 -15 -6 -30 -12 -33 -9 -3 -8 -8 5 -16 21 -14 23 -60 2 -60 -8 0 -15
6 -15 14 0 8 -7 16 -15 20 -20 7 -19 33 3 45 14 9 15 12 3 20 -10 6 -14 24
-13 50 3 37 -17 69 -26 43 -2 -7 -13 -17 -24 -23 -15 -8 -24 -7 -39 7 -15 14
-21 14 -34 4 -8 -7 -15 -22 -15 -34 0 -30 -11 -66 -20 -66 -4 0 -10 24 -13 54
-6 62 3 183 12 167 13 -20 85 26 91 57 4 21 11 27 30 27 33 0 33 -27 0 -35
-25 -6 -25 -6 5 -12 19 -4 36 -17 45 -32 17 -32 25 -32 56 0 18 17 24 32 21
46 -5 17 9 46 22 48 2 0 1 -33 -3 -72z m100 -2 c3 -8 0 -25 -6 -37 -11 -20
-13 -20 -22 -5 -10 18 -2 56 13 56 5 0 12 -6 15 -14z m-26 -76 c0 -5 -5 -10
-11 -10 -5 0 -7 5 -4 10 3 6 8 10 11 10 2 0 4 -4 4 -10z m-124 -281 c3 -5 -6
-23 -20 -40 -24 -28 -26 -29 -26 -9 0 13 -8 24 -20 27 -26 7 -25 16 3 29 24
11 54 7 63 -7z m-56 -84 c0 -8 -9 -15 -20 -15 -13 0 -18 5 -14 15 4 8 12 15
20 15 8 0 14 -7 14 -15z m-120 -71 c0 -8 -5 -12 -10 -9 -6 4 -8 11 -5 16 9 14
15 11 15 -7z m66 -140 c-5 -18 -10 -24 -17 -17 -7 7 -7 17 2 31 17 27 23 20
15 -14z m-99 -121 c-3 -10 -5 -2 -5 17 0 19 2 27 5 18 2 -10 2 -26 0 -35z m38
27 c0 -7 -6 -15 -12 -17 -8 -3 -13 4 -13 17 0 13 5 20 13 18 6 -3 12 -11 12
-18z m212 -17 c-3 -10 -5 -4 -5 12 0 17 2 24 5 18 2 -7 2 -21 0 -30z m-233
-108 c-4 -8 -10 -15 -14 -15 -5 0 -11 -10 -13 -22 -4 -23 -4 -23 -6 -1 0 12 6
29 15 37 19 20 25 20 18 1z m373 -7 c-3 -13 -9 -71 -13 -131 -4 -59 -11 -110
-17 -114 -18 -11 -27 22 -24 90 1 37 -1 67 -5 67 -5 0 -8 18 -8 40 0 22 5 40
10 40 6 0 10 -7 10 -15 0 -8 5 -15 11 -15 6 0 10 10 9 23 -3 33 -1 37 16 37
12 0 15 -6 11 -22z m-187 -18 c0 -5 -2 -10 -4 -10 -3 0 -8 5 -11 10 -3 6 -1
10 4 10 6 0 11 -4 11 -10z m-178 -77 c12 -15 2 -33 -17 -33 -20 0 -29 20 -16
33 6 6 12 20 12 32 1 20 1 20 6 0 3 -11 10 -25 15 -32z m112 22 c8 -23 -4 -45
-25 -45 -19 0 -24 16 -13 44 8 20 30 21 38 1z m-167 -132 c-3 -10 -5 -2 -5 17
0 19 2 27 5 18 2 -10 2 -26 0 -35z m200 15 c-3 -8 -6 -5 -6 6 -1 11 2 17 5 13
3 -3 4 -12 1 -19z m-163 -70 c-10 -16 -24 13 -23 47 l0 30 14 -34 c8 -18 12
-38 9 -43z m-44 -158 c0 -5 -4 -10 -10 -10 -5 0 -10 5 -10 10 0 6 5 10 10 10
6 0 10 -4 10 -10z m-33 -402 c-3 -7 -5 -2 -5 12 0 14 2 19 5 13 2 -7 2 -19 0
-25z"/>
<path d="M3351 7444 c0 -11 3 -14 6 -6 3 7 2 16 -1 19 -3 4 -6 -2 -5 -13z"/>
<path d="M3320 7396 c0 -9 5 -16 10 -16 6 0 10 4 10 9 0 6 -4 13 -10 16 -5 3
-10 -1 -10 -9z"/>
<path d="M12436 7401 c-4 -7 -5 -15 -2 -18 9 -9 19 4 14 18 -4 11 -6 11 -12 0z"/>
<path d="M12300 7296 c0 -31 6 -34 13 -6 3 11 1 23 -4 26 -5 3 -9 -6 -9 -20z"/>
<path d="M3520 7200 c0 -5 5 -10 10 -10 6 0 10 5 10 10 0 6 -4 10 -10 10 -5 0
-10 -4 -10 -10z"/>
<path d="M12400 7120 c0 -5 5 -10 11 -10 5 0 7 5 4 10 -3 6 -8 10 -11 10 -2 0
-4 -4 -4 -10z"/>
<path d="M3264 7109 c-3 -6 -1 -16 5 -22 8 -8 11 -5 11 11 0 24 -5 28 -16 11z"/>
<path d="M3575 6910 c-3 -5 1 -10 9 -10 9 0 16 5 16 10 0 6 -4 10 -9 10 -6 0
-13 -4 -16 -10z"/>
<path d="M3561 6853 c-1 -18 4 -33 9 -33 12 0 12 17 0 45 -7 17 -9 15 -9 -12z"/>
<path d="M3320 6780 c0 -44 6 -49 26 -22 21 27 18 62 -6 62 -17 0 -20 -7 -20
-40z"/>
<path d="M3207 6693 c-4 -3 -7 -36 -7 -72 0 -36 4 -61 8 -55 12 13 33 114 26
125 -6 11 -18 12 -27 2z"/>
<path d="M3072 6580 l1 -85 7 65 c3 36 3 74 -1 85 -4 11 -7 -17 -7 -65z"/>
<path d="M13745 6500 c-18 -6 -18 -8 8 -34 15 -15 27 -34 27 -42 0 -15 27 -31
36 -21 3 3 -7 27 -23 55 -23 40 -32 48 -48 42z"/>
<path d="M3073 6435 c0 -22 2 -30 4 -17 2 12 2 30 0 40 -3 9 -5 -1 -4 -23z"/>
<path d="M13846 6355 c-4 -11 2 -15 21 -15 21 0 24 2 13 15 -7 8 -16 15 -20
15 -4 0 -10 -7 -14 -15z"/>
<path d="M3608 6299 c-2 -25 1 -44 9 -51 7 -6 13 -9 14 -7 9 61 8 99 -5 99 -9
0 -15 -14 -18 -41z"/>
<path d="M12549 6314 c-6 -7 -24 -16 -40 -19 -16 -4 -29 -11 -29 -17 0 -6 -11
-8 -27 -3 -16 3 -47 6 -71 5 -28 0 -52 6 -71 19 l-27 20 -32 -62 c-18 -34 -32
-73 -32 -86 0 -27 69 -171 82 -171 5 0 16 -16 25 -36 16 -33 16 -37 1 -48 -14
-11 -13 -15 11 -51 14 -21 31 -40 36 -41 12 -4 105 183 105 210 0 15 5 17 27
11 42 -10 50 -21 57 -75 4 -27 13 -55 20 -62 8 -7 35 -31 60 -53 49 -42 59
-44 216 -46 93 -1 241 34 300 73 14 8 39 22 55 30 19 9 29 20 27 31 -2 14 5
17 47 17 27 0 53 -5 56 -10 9 -14 38 17 32 34 -3 8 10 27 29 44 19 17 34 34
34 38 0 4 8 12 17 19 16 12 16 14 0 39 -10 14 -22 26 -27 26 -6 0 -15 11 -19
24 -7 16 -25 28 -63 40 -29 9 -86 33 -127 52 -40 20 -103 41 -140 47 -65 11
-85 11 -251 7 -47 -1 -127 0 -178 2 -67 4 -95 2 -103 -8z m458 -264 l23 -18
-40 -16 c-22 -9 -43 -16 -45 -16 -3 0 -5 18 -5 41 0 37 2 40 23 33 12 -4 32
-15 44 -24z"/>
<path d="M13920 6276 c0 -9 5 -16 10 -16 6 0 10 4 10 9 0 6 -4 13 -10 16 -5 3
-10 -1 -10 -9z"/>
<path d="M13876 6272 c-3 -5 -3 -25 1 -46 4 -27 9 -34 18 -26 6 5 15 7 18 3 4
-3 7 1 7 11 0 10 -5 14 -11 10 -7 -4 -10 3 -7 22 3 26 -14 44 -26 26z"/>
<path d="M3684 6005 c0 -55 1 -76 3 -47 2 29 2 74 0 100 -2 26 -3 2 -3 -53z"/>
<path d="M13880 6068 c0 -25 3 -29 10 -18 13 20 13 50 0 50 -5 0 -10 -15 -10
-32z"/>
<path d="M3556 5925 c4 -8 10 -15 15 -15 5 0 9 7 9 15 0 8 -7 15 -15 15 -9 0
-12 -6 -9 -15z"/>
<path d="M3620 5874 c-12 -32 -12 -65 0 -84 14 -22 21 -8 27 54 6 61 -9 78
-27 30z"/>
<path d="M12726 5681 c-7 -11 22 -37 52 -45 27 -9 28 1 3 32 -20 22 -46 29
-55 13z"/>
<path d="M3495 5493 c4 -10 7 -26 7 -35 0 -10 3 -18 9 -18 5 0 9 16 9 35 0 25
-4 35 -16 35 -12 0 -14 -5 -9 -17z"/>
<path d="M14205 5500 c-3 -5 1 -10 9 -10 9 0 16 5 16 10 0 6 -4 10 -9 10 -6 0
-13 -4 -16 -10z"/>
<path d="M14455 5470 c-3 -5 -1 -10 4 -10 6 0 11 5 11 10 0 6 -2 10 -4 10 -3
0 -8 -4 -11 -10z"/>
<path d="M3639 5400 c-7 -22 -18 -40 -26 -40 -18 0 -16 -37 3 -44 19 -7 34 0
34 17 0 7 8 20 18 28 14 12 18 25 14 48 -6 43 -29 39 -43 -9z"/>
<path d="M13441 5364 c0 -11 3 -14 6 -6 3 7 2 16 -1 19 -3 4 -6 -2 -5 -13z"/>
<path d="M3622 5193 c4 -31 23 -42 30 -16 7 25 -1 43 -18 43 -11 0 -14 -8 -12
-27z"/>
<path d="M3570 5154 c1 -33 70 -60 70 -27 0 10 -6 13 -16 9 -10 -4 -25 1 -35
10 -11 10 -19 13 -19 8z"/>
<path d="M14085 5150 c-3 -5 1 -10 10 -10 9 0 13 5 10 10 -3 6 -8 10 -10 10
-2 0 -7 -4 -10 -10z"/>
<path d="M3630 5081 c0 -12 5 -21 10 -21 6 0 10 6 10 14 0 8 -4 18 -10 21 -5
3 -10 -3 -10 -14z"/>
<path d="M14530 5018 c0 -49 5 -47 13 5 3 20 2 37 -4 37 -5 0 -9 -19 -9 -42z"/>
<path d="M3520 4882 c0 -11 -7 -25 -15 -32 -23 -19 -18 -33 11 -26 23 6 24 5
13 -16 -7 -12 -21 -30 -33 -40 -19 -16 -22 -16 -33 -1 -7 9 -13 25 -13 35 0
10 -3 18 -8 18 -4 0 -5 -21 -3 -47 2 -36 10 -51 32 -70 16 -14 29 -30 29 -37
0 -19 -34 -46 -57 -46 -17 0 -21 -7 -21 -45 -1 -25 3 -45 8 -45 6 0 10 12 10
28 l0 27 19 -25 c16 -20 31 -25 86 -30 84 -7 95 3 88 78 -3 28 -9 52 -14 52
-5 0 -6 7 -2 16 3 8 12 13 21 9 27 -10 42 15 42 74 0 70 -22 100 -81 116 -24
7 -52 15 -61 20 -14 5 -18 2 -18 -13z m80 -212 c0 -5 -18 -10 -40 -10 -22 0
-40 5 -40 10 0 6 18 10 40 10 22 0 40 -4 40 -10z"/>
<path d="M3224 4379 c-10 -17 13 -36 27 -22 12 12 4 33 -11 33 -5 0 -12 -5
-16 -11z"/>
<path d="M3478 4365 c-3 -14 -1 -28 3 -31 15 -9 29 6 29 32 0 32 -26 31 -32
-1z"/>
<path d="M3280 4360 c0 -6 4 -19 10 -29 5 -10 7 -35 3 -55 -5 -29 -10 -36 -29
-36 -17 0 -22 -4 -18 -15 5 -12 -4 -15 -46 -15 -31 0 -49 -4 -45 -10 3 -5 15
-10 26 -10 24 0 26 -25 2 -27 -10 -1 -35 -4 -57 -8 -45 -9 -58 4 -46 46 10 34
6 39 -27 33 -14 -3 -31 0 -38 6 -14 12 -18 5 -30 -60 -3 -19 -15 -62 -25 -95
-10 -33 -26 -87 -35 -120 -29 -101 -77 -239 -87 -253 -6 -7 -9 -15 -6 -17 16
-17 128 167 128 210 0 16 10 30 30 42 17 9 30 21 30 25 0 4 5 8 11 8 6 0 9 -9
6 -20 -4 -15 0 -20 13 -20 11 0 22 -4 25 -10 3 -5 15 -10 26 -10 11 0 22 -6
25 -14 7 -19 -74 -189 -100 -207 -4 -4 -13 -26 -18 -50 -10 -46 -25 -262 -20
-279 8 -23 20 -6 32 48 8 31 22 74 33 95 19 37 18 67 -3 67 -5 0 -11 -12 -11
-27 -1 -19 -3 -22 -6 -10 -3 10 2 40 11 67 9 27 16 55 16 62 0 17 68 145 81
153 5 4 9 17 9 31 0 25 20 63 51 99 19 21 27 97 14 127 -5 13 0 17 27 20 30 3
33 6 31 32 -1 16 1 26 4 23 3 -4 15 -2 25 4 16 8 19 17 14 40 -3 16 -1 29 4
29 9 0 29 39 44 88 6 18 3 22 -13 22 -12 0 -21 -6 -22 -12 -1 -7 -4 -2 -8 12
-7 25 -41 42 -41 20z m-133 -396 c3 -9 0 -20 -8 -25 -8 -5 -15 -4 -17 1 -2 6
-17 10 -33 10 -40 0 -37 18 4 23 17 2 36 5 40 5 4 1 10 -5 14 -14z"/>
<path d="M3905 4153 c-27 -8 -67 -21 -87 -28 -35 -12 -42 -11 -85 11 -46 23
-49 23 -65 6 -15 -14 -16 -24 -8 -52 15 -52 12 -100 -5 -106 -8 -4 -15 -18
-15 -33 0 -15 -7 -36 -15 -47 -8 -10 -15 -39 -15 -63 0 -38 2 -43 19 -38 12 3
22 -1 25 -9 9 -23 23 -16 35 16 5 17 15 30 20 30 6 0 15 18 21 40 5 22 15 58
20 80 15 55 37 72 135 105 93 31 107 41 99 72 -8 30 -22 33 -79 16z m-249
-330 c-10 -10 -19 5 -10 18 6 11 8 11 12 0 2 -7 1 -15 -2 -18z"/>
<path d="M2030 4065 c-21 -23 -23 -33 -25 -172 -2 -81 -4 -160 -6 -174 -1 -15
12 -49 31 -81 30 -51 42 -60 119 -98 104 -51 171 -106 215 -174 19 -28 57 -73
86 -101 57 -55 104 -143 147 -280 21 -64 24 -85 15 -107 -8 -22 -7 -30 3 -36
10 -5 16 -42 20 -127 3 -66 10 -150 15 -187 6 -37 7 -94 4 -126 -4 -39 -3 -62
5 -66 7 -5 11 5 12 31 0 21 4 47 8 57 6 17 9 16 18 -10 22 -56 25 -104 8 -110
-26 -10 -19 -44 10 -44 21 0 25 5 25 30 0 17 -6 39 -12 50 -13 20 -6 32 26 43
4 1 10 14 11 27 2 14 8 38 14 53 6 16 11 48 11 73 0 43 5 51 54 92 9 7 16 17
16 22 0 14 -24 12 -38 -2 -19 -19 -32 8 -21 46 5 17 9 34 9 38 0 14 -30 9 -30
-4 0 -7 -5 -5 -11 5 -13 23 -3 71 13 61 8 -5 9 0 5 16 -3 13 0 28 9 37 7 8 17
26 20 41 4 15 15 36 25 47 15 17 36 79 42 125 3 23 -26 80 -40 80 -15 0 -15 3
-4 -37 5 -18 6 -35 1 -38 -12 -7 -19 44 -13 97 5 43 3 48 -28 76 -23 21 -36
27 -41 19 -14 -21 -8 -36 15 -39 19 -3 22 -9 23 -49 l1 -46 -27 14 c-26 13
-27 15 -28 110 0 60 5 114 14 138 24 70 14 73 -46 15 l-41 -40 25 -11 c30 -14
31 -17 10 -47 -18 -26 -55 -29 -89 -6 -33 21 -58 12 -50 -18 5 -20 4 -21 -5
-5 -6 9 -18 17 -25 17 -27 0 -18 56 12 75 l26 18 -21 16 c-12 9 -24 32 -27 51
-4 19 -8 45 -11 58 -7 37 12 25 29 -18 8 -22 20 -40 25 -40 6 0 24 11 40 25
35 29 58 32 83 9 23 -21 39 -10 39 27 0 20 4 28 11 23 7 -4 9 -21 6 -40 -3
-19 -2 -34 3 -34 13 0 20 28 20 86 0 39 4 56 15 60 8 4 15 15 15 25 0 15 -7
19 -39 19 -22 0 -46 3 -54 6 -10 3 -20 -3 -27 -16 -10 -18 -9 -21 7 -20 38 4
46 1 34 -14 -19 -22 -50 -26 -61 -8 -5 10 -10 14 -10 10 0 -12 -70 13 -121 42
-55 33 -65 28 -19 -10 l31 -25 -26 -25 -25 -24 6 31 c8 40 -28 82 -52 62 -24
-20 -29 0 -6 21 28 26 29 66 2 80 -37 20 -50 63 -50 165 0 77 -3 95 -15 95 -8
0 -19 -9 -25 -20 -13 -24 -28 -25 -52 -3 -17 16 -20 16 -36 0 -13 -13 -18 -41
-22 -110 -5 -90 -6 -92 -30 -92 -18 0 -26 -6 -28 -22 -2 -12 -9 -27 -17 -33
-11 -9 -20 -6 -40 14 -29 29 -31 47 -10 106 20 55 11 123 -15 115 -10 -3 -24
1 -31 9 -27 29 -40 46 -37 47 2 0 12 2 22 4 25 5 37 26 24 42 -15 18 -21 16
-48 -12z m420 -515 c0 -5 -7 -10 -15 -10 -8 0 -15 5 -15 10 0 6 7 10 15 10 8
0 15 -4 15 -10z m268 -466 c-4 -23 -26 -30 -34 -10 -8 20 15 51 29 37 5 -5 7
-17 5 -27z m43 -427 c-10 -9 -11 -8 -5 6 3 10 9 15 12 12 3 -3 0 -11 -7 -18z"/>
<path d="M3305 3991 c-7 -12 12 -24 25 -16 11 7 4 25 -10 25 -5 0 -11 -4 -15
-9z"/>
<path d="M3170 3845 c-6 -8 -9 -19 -5 -25 8 -12 35 -13 35 -1 0 5 3 16 6 25 8
20 -19 21 -36 1z"/>
<path d="M3455 3710 c-3 -5 1 -10 10 -10 9 0 13 5 10 10 -3 6 -8 10 -10 10 -2
0 -7 -4 -10 -10z"/>
<path d="M2894 3676 c-8 -22 3 -33 18 -18 9 9 9 15 0 24 -9 9 -13 7 -18 -6z"/>
<path d="M3536 3624 c-8 -20 1 -34 20 -34 8 0 14 10 14 25 0 28 -24 34 -34 9z"/>
<path d="M3172 3577 c-9 -10 -7 -19 5 -36 14 -21 17 -22 25 -7 10 18 2 56 -11
56 -5 0 -13 -6 -19 -13z"/>
<path d="M2604 3410 c3 -19 1 -30 -6 -30 -6 0 -9 -2 -6 -5 3 -3 16 -1 29 4 13
5 18 10 10 10 -9 1 -11 9 -7 26 5 19 2 25 -10 25 -13 0 -15 -6 -10 -30z"/>
<path d="M2882 3318 c5 -15 28 -18 29 -3 0 6 -7 12 -17 13 -10 3 -15 -1 -12
-10z"/>
<path d="M2830 3297 c-34 -17 -32 -41 4 -45 35 -4 54 11 38 31 -7 8 -9 17 -5
20 11 11 -10 8 -37 -6z"/>
<path d="M3009 3249 c-3 -58 -19 -129 -33 -152 -7 -12 -19 -48 -25 -79 -8 -39
-17 -58 -27 -58 -23 0 -29 -29 -9 -44 13 -10 16 -20 11 -40 -22 -88 -26 -284
-6 -296 9 -5 11 -21 8 -48 -5 -35 -4 -39 13 -35 24 7 26 58 4 99 -17 33 -18
87 -3 159 5 28 11 68 13 90 4 58 14 114 29 160 8 22 24 72 37 112 17 52 29 75
46 82 27 13 32 51 6 51 -10 0 -28 3 -40 6 -16 4 -23 2 -24 -7z"/>
<path d="M2875 3220 c3 -5 11 -10 16 -10 6 0 7 5 4 10 -3 6 -11 10 -16 10 -6
0 -7 -4 -4 -10z"/>
<path d="M3560 3170 c-18 -11 -5 -40 20 -40 23 0 25 8 7 32 -8 10 -18 14 -27
8z"/>
<path d="M3018 2514 c3 -39 0 -64 -7 -68 -12 -8 -15 -26 -3 -26 12 0 32 52 32
82 0 15 -4 28 -9 28 -5 0 -11 10 -14 23 -2 12 -1 -6 1 -39z"/>
<path d="M2864 2519 c-3 -6 -1 -16 5 -22 8 -8 11 -5 11 11 0 24 -5 28 -16 11z"/>
<path d="M3425 2490 c4 -6 11 -8 16 -5 14 9 11 15 -7 15 -8 0 -12 -5 -9 -10z"/>
<path d="M3063 2461 c-13 -11 -23 -28 -23 -38 0 -11 -11 -26 -25 -33 -14 -7
-25 -17 -25 -21 0 -4 -7 -15 -16 -23 -8 -9 -14 -21 -12 -27 4 -13 33 11 40 33
4 10 8 10 20 1 8 -7 18 -10 21 -6 15 15 6 -21 -12 -46 -11 -15 -23 -39 -26
-54 -4 -14 -13 -31 -21 -38 -8 -7 -11 -21 -8 -34 3 -13 1 -26 -5 -29 -14 -9
-14 -26 -1 -26 6 0 19 19 29 43 54 122 65 156 67 203 1 28 9 65 18 82 19 36
12 40 -21 13z"/>
<path d="M394 2431 c-7 -32 -73 -87 -96 -78 -7 2 -21 -2 -30 -11 -16 -14 -20
-13 -37 2 -15 14 -29 16 -70 10 -35 -4 -56 -3 -66 6 -12 10 -20 9 -40 -4 -13
-9 -31 -16 -40 -16 -13 0 -15 -37 -15 -305 0 -237 3 -305 13 -306 6 -1 22 0
35 1 14 1 22 -4 22 -14 0 -9 7 -16 16 -16 8 0 12 5 9 10 -9 14 8 13 23 -2 8
-8 15 -8 24 -1 19 15 92 27 83 14 -3 -6 -18 -11 -31 -11 -23 0 -25 -3 -19 -29
4 -19 0 -41 -10 -61 -19 -37 -17 -40 21 -43 23 -2 30 3 32 21 2 12 -1 22 -7
22 -6 0 -11 7 -11 15 0 12 4 13 19 5 11 -5 32 -10 48 -10 15 0 35 -5 43 -10
13 -9 11 -14 -13 -33 -26 -22 -36 -47 -19 -47 5 0 17 -6 27 -14 17 -12 17 -16
5 -31 -12 -14 -12 -18 1 -26 11 -7 11 -9 1 -9 -16 0 -10 -24 6 -26 7 -1 28 -2
47 -3 39 -1 47 -17 13 -24 -17 -3 -15 -5 9 -6 29 -1 32 1 29 27 -1 15 -7 26
-13 25 -6 -1 -9 6 -5 19 5 20 6 20 18 3 7 -9 17 -14 22 -11 6 3 8 -2 5 -14 -4
-15 0 -20 15 -20 11 0 25 -7 32 -15 16 -19 34 -19 26 0 -7 18 4 19 39 3 15 -7
24 -17 21 -25 -4 -10 8 -13 50 -13 l56 0 -23 19 c-19 16 -22 22 -11 32 17 18
15 29 -7 29 -15 0 -18 5 -13 23 5 19 7 19 10 4 3 -13 10 -17 23 -14 13 4 25
-3 35 -19 18 -26 40 -33 30 -9 -9 24 2 18 44 -27 38 -41 41 -42 46 -20 7 24
20 27 44 12 13 -9 13 -11 0 -20 -12 -8 -10 -10 9 -10 16 0 21 4 18 14 -9 24
47 38 99 25 24 -6 59 -9 76 -5 27 5 36 2 50 -16 12 -15 20 -19 25 -12 14 20
63 26 69 9 9 -22 38 -18 49 8 7 16 17 21 35 19 40 -4 93 -4 120 1 14 2 35 -1
47 -6 16 -7 27 -6 37 2 8 7 46 12 92 11 146 0 154 1 154 17 0 10 6 13 16 9 9
-3 27 -9 40 -12 13 -3 24 -11 24 -16 0 -6 7 -8 15 -5 8 4 17 2 20 -2 3 -5 73
-9 155 -8 164 1 176 5 166 54 -6 26 -10 28 -60 29 -32 1 -64 8 -81 20 -15 10
-35 19 -44 20 -9 2 -28 6 -43 10 -25 6 -28 4 -28 -21 0 -23 -2 -26 -15 -15 -9
8 -13 21 -9 36 4 17 1 26 -10 30 -21 8 -48 58 -40 77 4 11 -8 16 -47 20 -64 8
-86 25 -70 55 6 11 11 31 11 44 1 13 13 38 29 56 27 32 28 32 82 22 30 -5 80
-12 112 -15 31 -4 57 -10 57 -15 0 -5 -33 -10 -72 -12 -57 -2 -73 -6 -73 -18
0 -12 17 -16 74 -20 77 -5 98 -18 59 -35 -26 -12 -36 -35 -15 -35 8 0 17 -10
21 -22 6 -25 22 -16 28 17 3 17 11 20 61 20 31 0 57 -4 57 -10 0 -5 11 8 23
30 18 32 29 40 51 40 20 1 30 -5 34 -17 2 -10 13 -18 23 -18 27 0 32 -17 8
-33 l-21 -15 23 -4 c19 -2 23 -9 23 -37 0 -19 -6 -37 -12 -39 -7 -2 -12 1 -12
7 0 21 -77 12 -107 -12 -15 -13 -37 -27 -48 -31 -16 -6 -17 -9 -5 -16 9 -6 19
-5 24 0 16 16 76 12 76 -4 0 -8 -8 -16 -17 -18 -24 -4 -29 -116 -6 -125 8 -3
13 -14 10 -24 -3 -11 -1 -19 4 -19 5 0 9 9 9 19 0 13 8 21 23 23 19 3 22 10
25 61 3 52 1 59 -18 64 -44 12 -2 40 63 42 37 1 45 -24 18 -53 -17 -18 -22
-33 -19 -62 3 -34 6 -39 28 -40 14 -1 69 -5 122 -8 l97 -7 0 128 c-1 165 -4
183 -34 183 -13 0 -27 5 -30 10 -12 19 -73 11 -95 -12 -11 -12 -34 -24 -50
-26 -26 -3 -30 0 -30 21 0 21 6 25 40 31 21 3 43 12 47 19 4 6 18 18 31 25 18
10 22 10 22 -1 0 -25 33 -45 67 -40 27 4 32 10 42 50 7 24 14 106 17 181 3 75
10 141 15 147 5 5 9 20 8 35 0 24 -1 25 -11 3 -7 -15 -18 -21 -37 -20 -20 2
-27 -3 -29 -20 -4 -26 -17 -30 -26 -8 -3 8 -13 15 -23 15 -10 0 -26 14 -36 31
-15 28 -21 31 -49 25 -17 -3 -37 -1 -44 5 -9 7 -20 6 -38 -7 -21 -13 -29 -14
-41 -4 -11 9 -39 11 -90 8 -42 -3 -78 -1 -81 3 -3 5 -25 9 -48 9 -27 0 -48 6
-56 15 -7 9 -29 15 -54 15 -22 0 -53 7 -68 14 -25 13 -28 13 -28 0 0 -26 -43
-37 -96 -24 -84 20 -167 10 -201 -26 -26 -26 -54 -25 -165 8 -64 19 -69 19
-97 2 -46 -27 -64 -14 -55 42 l7 47 -41 -7 c-39 -6 -42 -4 -57 24 -13 25 -20
29 -40 24 -37 -9 -65 4 -65 30 0 36 -19 44 -95 42 -65 -1 -70 -3 -71 -24 -1
-25 -31 -62 -49 -62 -7 0 -15 -7 -19 -15 -8 -21 -26 -19 -26 4 0 10 12 30 26
45 26 26 26 26 4 26 -12 0 -33 9 -47 20 l-26 20 -33 -20 c-32 -20 -54 -14 -38
12 5 7 0 9 -14 6 -13 -4 -20 -2 -19 6 4 21 -24 11 -36 -14 -9 -18 -20 -24 -37
-22 -14 1 -28 -6 -37 -18 -16 -22 -42 -27 -44 -7 -1 6 -2 19 -3 27 0 8 -11 16
-24 18 -13 2 -27 14 -32 28 -13 34 -39 31 -46 -5z m246 -60 c0 -12 -28 -22
-34 -12 -3 5 -3 11 1 15 9 9 33 7 33 -3z m125 -1 c9 -15 -14 -40 -31 -33 -22
8 -18 43 5 43 11 0 23 -5 26 -10z m245 -10 c0 -11 -4 -20 -10 -20 -5 0 -10 9
-10 20 0 11 5 20 10 20 6 0 10 -9 10 -20z m-330 -25 c0 -16 -6 -25 -15 -25
-18 0 -18 5 -5 31 14 26 20 24 20 -6z m380 -24 c0 -5 -7 -11 -15 -15 -9 -3
-15 0 -15 9 0 8 7 15 15 15 8 0 15 -4 15 -9z m-450 -5 c0 -3 -4 -8 -10 -11 -5
-3 -10 -1 -10 4 0 6 5 11 10 11 6 0 10 -2 10 -4z m115 -48 c-1 -13 -3 -29 -4
-35 -2 -20 -50 -15 -83 8 -36 26 -21 42 24 27 24 -9 33 -7 46 6 20 20 20 20
17 -6z m455 -7 c0 -21 -35 -51 -58 -51 -19 0 -26 28 -10 43 30 30 68 34 68 8z
m-380 -17 c0 -2 -7 -4 -15 -4 -8 0 -15 4 -15 10 0 5 7 7 15 4 8 -4 15 -8 15
-10z m70 -4 c-20 -13 -53 -13 -45 0 3 6 18 10 33 10 21 0 24 -2 12 -10z m149
-49 c-13 -4 -59 19 -59 30 0 4 8 9 18 12 19 4 58 -36 41 -42z m-89 -11 c0 -5
-12 -10 -26 -10 -14 0 -23 4 -19 10 3 6 15 10 26 10 10 0 19 -4 19 -10z m-325
-20 c3 -5 1 -10 -4 -10 -6 0 -11 5 -11 10 0 6 2 10 4 10 3 0 8 -4 11 -10z
m530 -30 c-3 -5 -12 -7 -20 -3 -21 7 -19 13 6 13 11 0 18 -4 14 -10z m-375
-183 c0 -12 -9 -33 -20 -47 -11 -14 -20 -33 -20 -42 0 -11 -8 -18 -20 -18 -24
0 -27 13 -15 63 6 21 4 27 -9 27 -9 0 -16 4 -16 8 0 18 24 30 61 30 34 1 39
-2 39 -21z m530 -22 c0 -8 -4 -15 -10 -15 -5 0 -10 7 -10 15 0 8 5 15 10 15 6
0 10 -7 10 -15z m-1210 -53 c0 -21 -19 -42 -37 -42 -18 0 -28 47 -13 65 15 19
50 2 50 -23z m2234 1 c4 -21 2 -51 -3 -68 l-8 -30 -12 28 c-11 29 -5 107 9
107 5 0 11 -17 14 -37z m-1230 -25 c17 -28 -1 -33 -101 -31 -71 2 -93 -1 -90
-10 2 -6 14 -14 28 -16 13 -1 27 -8 31 -15 6 -8 8 -8 8 2 0 6 7 12 15 12 8 0
15 -6 15 -14 0 -8 7 -16 15 -20 19 -7 19 -30 0 -46 -13 -11 -21 -10 -43 7 -23
17 -30 17 -52 6 -14 -7 -33 -13 -42 -13 -9 0 -20 -4 -23 -10 -22 -35 -93 34
-105 102 -11 60 12 68 189 65 123 -2 145 -4 155 -19z m216 8 c0 -17 -24 -38
-33 -29 -15 15 -6 43 13 43 11 0 20 -6 20 -14z m-144 -45 c-7 -11 -46 -21 -46
-12 0 13 13 21 32 21 11 0 17 -4 14 -9z m1391 3 c-3 -3 -12 -4 -19 -1 -8 3 -5
6 6 6 11 1 17 -2 13 -5z m-187 -13 c0 -6 -4 -13 -10 -16 -5 -3 -10 1 -10 9 0
9 5 16 10 16 6 0 10 -4 10 -9z m-1013 -36 c8 -23 -3 -29 -44 -27 -45 3 -50 7
-33 27 16 20 69 20 77 0z m-1012 -15 c-28 -12 -37 -12 -30 0 3 6 16 10 28 9
21 0 21 -1 2 -9z m245 -20 c-8 -5 -17 -7 -19 -4 -3 3 1 9 9 14 8 5 17 7 19 4
3 -3 -1 -9 -9 -14z m867 -27 c14 -45 2 -64 -17 -28 -14 26 -46 36 -37 11 3 -7
0 -19 -6 -25 -16 -16 8 -31 51 -31 36 0 95 -27 129 -59 18 -18 26 -19 50 -10
19 7 29 7 31 0 2 -6 10 -11 18 -11 8 0 14 -5 14 -11 0 -6 7 -8 16 -5 24 9 64
-4 64 -21 0 -12 -7 -14 -27 -9 -16 4 -39 8 -53 10 -14 2 -37 7 -52 11 -20 5
-28 3 -28 -5 0 -14 -61 -6 -95 13 -11 6 -24 10 -30 8 -66 -22 -62 -23 -92 39
-20 44 -32 58 -46 57 -11 -1 -24 5 -29 13 -17 26 48 88 92 89 32 1 36 -2 47
-36z m249 24 c4 -3 -2 -10 -12 -14 -23 -8 -34 -22 -34 -45 0 -14 8 -18 34 -18
44 0 60 -20 52 -65 -7 -38 -21 -46 -28 -17 -4 14 -19 21 -53 26 -47 6 -85 28
-85 49 0 5 -8 16 -17 24 -16 13 -15 13 13 8 24 -5 33 -2 38 10 3 9 4 21 0 26
-10 16 -59 10 -74 -11 -14 -19 -14 -19 -27 0 -8 11 -12 23 -10 28 6 9 194 9
203 -1z m-1156 -1 c0 -2 -20 -13 -46 -25 -39 -19 -49 -20 -71 -9 -53 26 -39
38 41 38 42 0 76 -2 76 -4z m547 -68 c-3 -8 -6 -5 -6 6 -1 11 2 17 5 13 3 -3
4 -12 1 -19z m-457 -83 c0 -30 -15 -33 -30 -6 -14 27 -13 31 10 31 15 0 20 -7
20 -25z m548 -51 c-4 -3 -12 5 -18 18 -12 22 -12 22 6 6 10 -10 15 -20 12 -24z
m1202 -41 c0 -20 -3 -24 -11 -16 -7 7 -9 19 -6 27 10 24 17 19 17 -11z"/>
<path d="M3387 2433 c-11 -10 -8 -43 3 -43 12 0 31 35 23 44 -8 8 -18 8 -26
-1z"/>
<path d="M2812 2408 c-7 -7 -12 -25 -12 -40 0 -17 -5 -28 -14 -28 -16 0 -28
-89 -14 -104 4 -6 8 -18 8 -27 0 -16 39 -49 57 -49 5 0 15 21 22 48 8 26 19
50 25 54 22 15 -3 18 -30 3 -46 -24 -57 -18 -27 15 14 17 34 29 42 28 12 -2
17 7 19 39 3 37 0 42 -29 57 -38 19 -32 19 -47 4z"/>
<path d="M2926 2314 c-3 -9 -6 -23 -6 -31 0 -13 3 -13 15 -3 17 14 20 36 6 44
-5 3 -12 -1 -15 -10z"/>
<path d="M2652 2280 c0 -14 2 -19 5 -12 2 6 2 18 0 25 -3 6 -5 1 -5 -13z"/>
<path d="M3380 2285 c0 -9 5 -15 11 -13 6 2 11 8 11 13 0 5 -5 11 -11 13 -6 2
-11 -4 -11 -13z"/>
<path d="M9592 2283 c2 -10 12 -18 23 -18 11 0 21 8 23 18 3 13 -3 17 -23 17
-20 0 -26 -4 -23 -17z"/>
<path d="M10873 2273 c-18 -7 -16 -43 2 -43 18 0 31 28 19 39 -5 5 -15 6 -21
4z"/>
<path d="M4260 2247 c0 -18 -32 -47 -52 -47 -9 0 -29 -16 -45 -36 l-29 -36
-43 13 c-23 7 -47 21 -52 31 -10 18 -12 18 -34 4 -14 -9 -31 -16 -39 -16 -8 0
-28 -11 -44 -25 -31 -26 -66 -33 -77 -15 -3 6 -22 10 -42 10 -20 0 -45 7 -54
16 -17 15 -20 15 -44 0 -14 -9 -25 -25 -25 -35 0 -21 -23 -34 -36 -21 -5 5
-39 10 -76 11 -98 3 -102 -1 -116 -163 -12 -136 -14 -149 -33 -323 -12 -109
-16 -222 -9 -227 3 -2 56 -1 118 2 63 3 162 3 220 0 59 -3 143 -1 187 4 66 7
84 6 110 -8 28 -16 81 -16 106 0 4 2 10 0 13 -5 3 -5 44 -8 91 -7 74 2 85 0
91 -16 3 -11 15 -18 29 -18 17 0 23 4 19 14 -4 11 0 13 15 9 12 -3 21 -1 21 5
0 6 18 13 41 17 48 8 139 -3 120 -15 -9 -5 -1 -9 21 -12 29 -3 34 -1 31 13 -4
15 16 17 240 15 188 -1 248 -5 261 -15 19 -16 12 -31 -15 -31 -10 0 -19 -4
-19 -10 0 -12 47 -12 75 0 11 5 14 9 8 9 -7 1 -13 11 -13 22 l0 22 403 -7
c221 -4 566 -8 767 -8 201 -1 403 -5 450 -10 47 -4 166 -8 265 -7 99 0 191 0
205 -1 56 -4 209 -9 268 -10 55 0 62 -2 62 -20 0 -26 14 -25 32 2 l14 22 23
-23 c18 -18 25 -20 32 -10 12 19 86 22 93 4 6 -17 46 -21 46 -5 0 6 16 10 36
10 21 0 33 -4 29 -10 -3 -5 -2 -10 4 -10 5 0 11 4 13 9 2 5 41 11 88 12 47 2
99 6 115 10 17 4 46 10 65 13 19 3 53 11 75 16 22 6 91 13 153 17 91 4 112 2
112 -9 0 -10 -16 -13 -60 -13 -34 0 -60 4 -60 10 0 5 -4 4 -9 -4 -5 -7 -29
-16 -55 -18 -44 -5 -46 -7 -31 -23 9 -10 28 -20 43 -23 15 -2 36 -8 46 -12 12
-6 17 -5 13 2 -8 12 35 33 69 33 15 0 38 13 56 31 25 25 30 27 25 10 -6 -24 5
-27 23 -6 6 7 32 17 56 21 24 3 47 10 50 15 8 14 24 11 24 -5 0 -18 50 -26
130 -20 36 3 79 7 95 8 17 1 35 5 41 9 7 4 23 -2 37 -13 14 -11 35 -20 46 -20
12 0 21 -5 21 -10 0 -15 -27 -23 -47 -15 -27 11 -80 13 -95 4 -10 -7 -10 -11
0 -21 6 -6 12 -20 12 -31 0 -25 24 -16 28 10 3 19 11 22 74 25 38 2 72 -1 75
-5 3 -5 18 -7 34 -5 18 3 30 -1 34 -9 3 -9 12 -12 25 -8 15 5 18 3 14 -8 -3
-8 -1 -18 5 -22 16 -10 51 4 51 21 0 10 14 14 53 15 28 0 99 2 157 4 114 5
140 1 140 -21 0 -19 19 -18 41 2 16 14 19 14 41 0 14 -9 28 -13 32 -9 4 5 52
8 105 8 106 0 131 10 131 51 0 23 -2 24 -79 24 -44 0 -86 3 -95 6 -11 4 -16 1
-16 -10 0 -9 -4 -16 -10 -16 -5 0 -10 5 -10 10 0 6 -7 10 -15 10 -8 0 -15 -8
-15 -17 0 -9 -3 -13 -7 -10 -10 10 -11 107 -1 107 4 0 8 -7 8 -16 0 -12 6 -15
25 -10 14 4 25 3 25 -1 0 -12 159 -14 179 -3 10 5 21 23 23 40 5 30 4 30 -46
32 -100 3 -201 -5 -208 -16 -5 -7 -8 -5 -8 6 0 14 -18 16 -154 17 l-153 2 1
-58 1 -58 -35 0 c-31 0 -35 3 -33 25 1 14 5 38 9 53 6 25 4 28 -12 25 -16 -3
-19 -13 -19 -67 0 -35 -4 -66 -10 -68 -6 -2 -9 27 -7 79 6 131 4 172 -7 176
-7 2 -8 10 -1 21 5 10 6 21 3 25 -14 13 -33 5 -46 -20 l-14 -27 -10 30 c-8 22
-19 32 -43 36 -20 5 -34 14 -37 27 -7 27 -27 20 -31 -10 -3 -19 0 -22 17 -17
18 4 21 1 21 -27 0 -17 6 -41 14 -52 8 -11 16 -33 18 -49 2 -24 8 -30 28 -30
14 0 30 9 37 20 12 20 12 20 13 -2 0 -12 5 -25 10 -28 17 -10 -1 -27 -22 -22
-44 12 -62 -20 -36 -62 9 -15 9 -25 0 -45 -13 -28 -32 -35 -32 -12 0 22 -19
30 -36 15 -21 -17 -29 -4 -16 25 9 19 17 24 37 20 30 -5 31 -1 8 37 -15 26
-21 28 -52 23 -35 -7 -36 -1 -5 36 16 18 13 48 -6 60 -7 4 -14 23 -15 42 -3
46 -33 109 -55 115 -12 3 -21 18 -25 41 -9 49 -31 82 -55 82 -15 0 -20 7 -20
25 0 24 2 25 23 14 12 -7 27 -19 33 -27 17 -24 24 6 13 63 -5 27 -7 51 -4 54
10 10 40 -16 41 -35 0 -10 1 -48 2 -84 l2 -65 63 -20 c49 -16 63 -25 65 -42 3
-17 10 -23 28 -23 17 0 27 -8 34 -26 13 -32 34 -26 38 10 2 19 8 26 18 22 7
-3 18 3 24 14 6 11 17 20 25 20 11 0 12 -5 5 -26 -13 -34 -12 -54 2 -29 16 30
17 30 32 10 12 -16 16 -17 30 -6 9 7 16 20 16 27 0 8 17 33 38 57 57 64 63 74
72 112 6 26 4 39 -6 49 -16 17 -50 10 -59 -11 -4 -13 -3 -14 10 -3 12 10 16 9
21 -4 9 -24 -3 -59 -30 -89 -30 -32 -36 -33 -36 -7 0 11 4 20 9 20 19 0 20 31
1 50 -11 11 -20 29 -20 39 0 13 -8 21 -22 23 -29 4 -35 34 -13 58 17 18 16 20
-9 31 -23 11 -28 10 -40 -6 -12 -17 -14 -16 -18 14 -3 17 -1 34 4 37 4 3 8 -2
8 -10 0 -16 12 -21 23 -10 14 15 -8 34 -39 34 -22 0 -34 5 -34 14 0 16 -21 26
-56 26 -19 0 -24 -5 -24 -24 0 -15 -11 -33 -26 -45 -19 -15 -25 -27 -21 -42 7
-27 -23 -86 -47 -93 -13 -3 -21 3 -30 25 -8 22 -16 29 -29 25 -22 -5 -32 16
-19 40 7 13 6 21 -4 29 -8 6 -16 24 -17 40 -3 28 -5 30 -42 27 -22 -2 -51 -8
-65 -13 -29 -12 -78 -81 -61 -87 14 -5 14 -29 1 -37 -5 -3 -25 -3 -45 1 -30 5
-35 10 -35 34 0 15 -9 35 -20 45 -18 16 -20 16 -45 -3 -33 -26 -53 -19 -57 21
-3 27 -7 32 -28 29 -13 -1 -27 -7 -31 -13 -4 -6 -21 -8 -43 -4 -28 6 -41 3
-56 -10 -20 -18 -70 -14 -70 5 0 5 -14 19 -31 31 -25 18 -48 22 -124 25 -107
4 -131 -7 -121 -56 7 -37 -12 -55 -35 -34 -10 9 -16 21 -14 27 3 7 -4 23 -14
37 -17 21 -22 23 -43 13 -14 -6 -36 -9 -51 -6 -22 4 -27 2 -27 -15 0 -28 -39
-40 -55 -18 -16 22 -32 20 -45 -4 -6 -11 -17 -20 -24 -20 -7 0 -19 -11 -26
-25 -12 -22 -11 -27 6 -40 18 -13 18 -15 2 -31 -21 -21 -44 -7 -53 34 -3 15
-16 40 -28 56 -21 25 -26 27 -46 17 -30 -16 -55 -6 -68 27 l-10 27 -11 -28
c-10 -24 -15 -26 -31 -17 -41 21 -81 12 -123 -30 -23 -22 -44 -38 -47 -34 -3
3 1 9 9 15 12 7 11 10 -6 15 -19 5 -64 76 -64 102 0 13 -28 23 -35 12 -3 -5
-3 -20 0 -33 5 -19 -1 -29 -31 -52 -32 -25 -38 -26 -46 -11 -13 23 -26 20 -59
-15 l-29 -31 -18 21 c-11 14 -34 24 -65 29 -37 5 -50 13 -60 32 -19 37 -46 38
-53 2 -4 -18 -15 -34 -30 -41 -13 -5 -26 -23 -30 -38 -9 -36 -32 -63 -54 -63
-10 0 -32 14 -50 30 -18 17 -43 30 -56 30 -13 0 -34 11 -46 25 -15 17 -26 22
-37 16 -9 -5 -31 -6 -48 -4 -19 3 -51 -2 -73 -11 -27 -11 -54 -14 -81 -10 -30
5 -44 3 -60 -12 -19 -17 -22 -17 -67 -1 -61 22 -70 22 -74 -5 -4 -30 -56 -36
-93 -12 -19 12 -45 17 -86 16 -75 -2 -87 16 -40 60 31 29 31 31 15 49 -9 10
-25 19 -34 19 -9 0 -38 11 -64 25 -54 29 -78 31 -96 10 -17 -20 -7 -29 18 -16
26 14 58 -10 67 -48 3 -16 13 -32 22 -35 12 -5 11 -10 -10 -27 l-26 -20 -21
21 c-12 12 -24 19 -27 17 -10 -11 8 -44 33 -57 22 -12 23 -15 8 -23 -13 -7
-21 -5 -29 7 -16 21 -45 11 -45 -15 0 -11 -10 -24 -22 -29 -13 -6 -38 -19 -56
-30 -26 -16 -45 -19 -94 -15 -33 2 -69 0 -78 -5 -20 -11 -43 10 -54 47 -13 42
-135 59 -431 58 -150 -1 -166 1 -171 17 -7 24 -34 23 -34 -2 0 -14 -7 -20 -21
-20 -15 0 -19 5 -14 19 9 28 -24 36 -47 11 -10 -11 -21 -20 -24 -20 -17 0 -96
66 -110 91 -16 32 -31 34 -48 5 -25 -42 -63 -74 -76 -66 -8 5 -18 6 -22 4 -4
-3 -8 4 -8 16 0 14 4 19 13 14 6 -4 9 -4 5 1 -4 4 -3 16 3 26 12 23 -3 25 -21
4 -7 -8 -23 -15 -36 -15 -12 0 -34 -4 -48 -9 -22 -9 -29 -5 -58 29 -18 21 -41
50 -51 64 -24 35 -38 33 -35 -5 3 -37 -13 -47 -37 -23 -13 13 -15 27 -11 56 5
30 3 38 -9 38 -8 0 -15 -6 -15 -13z m3455 -217 c3 -5 -1 -10 -10 -10 -9 0 -13
5 -10 10 3 6 8 10 10 10 2 0 7 -4 10 -10z m368 -11 c-5 -5 -20 -5 -33 -2 l-25
7 25 6 c28 8 46 2 33 -11z m-663 -3 c0 -3 -4 -8 -10 -11 -5 -3 -10 -1 -10 4 0
6 5 11 10 11 6 0 10 -2 10 -4z m480 -6 c0 -5 -2 -10 -4 -10 -3 0 -8 5 -11 10
-3 6 -1 10 4 10 6 0 11 -4 11 -10z m270 0 c0 -10 -32 -30 -49 -30 -19 0 -12
15 12 26 29 15 37 16 37 4z m580 -10 c0 -5 -7 -10 -16 -10 -8 0 -12 5 -9 10 3
6 10 10 16 10 5 0 9 -4 9 -10z m497 -22 c-3 -8 -6 -5 -6 6 -1 11 2 17 5 13 3
-3 4 -12 1 -19z m-1227 -9 c0 -5 -9 -9 -20 -9 -22 0 -27 16 -7 23 15 5 27 -1
27 -14z m387 -16 c-3 -10 -5 -4 -5 12 0 17 2 24 5 18 2 -7 2 -21 0 -30z m911
4 c-7 -14 -13 -17 -16 -9 -6 19 6 44 18 37 7 -4 6 -14 -2 -28z m82 19 c0 -3
-4 -8 -10 -11 -5 -3 -10 -1 -10 4 0 6 5 11 10 11 6 0 10 -2 10 -4z m-1940 -11
c0 -11 -36 -45 -48 -45 -19 0 -27 31 -11 41 15 9 59 12 59 4z m308 -6 c-2 -6
-8 -10 -13 -10 -5 0 -11 4 -13 10 -2 6 4 11 13 11 9 0 15 -5 13 -11z m575 -14
c-2 -6 -7 -10 -13 -9 -5 1 -17 2 -25 3 -28 2 -15 20 13 18 15 -1 26 -7 25 -12z
m177 8 c-1 -19 -19 -35 -34 -30 -26 10 -19 37 9 37 14 0 25 -3 25 -7z m280
-18 c0 -12 5 -26 12 -33 18 -18 0 -27 -19 -9 -10 8 -29 13 -43 11 -29 -5 -65
19 -57 39 3 9 22 13 56 13 45 0 51 -2 51 -21z m-696 -6 c-8 -13 -21 -11 -27 5
-4 10 0 12 14 9 10 -3 16 -9 13 -14z m866 -5 c0 -8 -4 -12 -10 -9 -5 3 -10 10
-10 16 0 5 5 9 10 9 6 0 10 -7 10 -16z m394 1 c-8 -20 13 -45 37 -45 16 0 19
-8 19 -50 0 -57 -16 -67 -26 -16 -3 19 -17 44 -30 57 -27 25 -33 69 -9 69 9 0
12 -6 9 -15z m-920 -66 c-9 -15 -43 28 -44 54 0 15 5 12 26 -12 14 -17 22 -36
18 -42z m226 46 c-7 -8 -16 -15 -20 -15 -4 0 -10 7 -14 15 -4 11 2 15 21 15
21 0 24 -2 13 -15z m608 -14 c3 -16 9 -21 25 -19 19 3 22 -2 25 -38 2 -30 -2
-45 -18 -59 -20 -18 -20 -18 -19 1 5 52 -1 83 -16 78 -16 -7 -40 40 -29 57 10
16 29 4 32 -20z m-97 9 c25 -14 24 -36 -2 -50 -35 -19 -65 20 -37 48 15 15 15
15 39 2z m-3392 -9 c16 -10 8 -26 -20 -41 -24 -13 -38 12 -19 35 14 17 20 18
39 6z m2791 -11 c0 -5 -4 -10 -10 -10 -5 0 -10 5 -10 10 0 6 5 10 10 10 6 0
10 -4 10 -10z m157 -73 c1 -40 4 -115 6 -167 3 -72 0 -106 -13 -139 -24 -64
-33 -35 -14 48 9 39 13 83 10 97 -6 23 -11 26 -37 20 -25 -5 -30 -3 -27 11 2
9 14 20 28 23 24 6 25 9 28 99 3 108 16 113 19 8z m-1082 19 c14 -4 25 -11 25
-17 0 -8 -11 -9 -32 -4 -18 5 -49 9 -68 11 -19 1 -39 3 -45 4 -23 5 -34 -1
-37 -22 -4 -29 -38 -38 -38 -10 0 10 11 24 25 30 14 6 25 19 25 28 0 12 6 14
29 9 19 -4 34 -1 42 8 12 12 16 11 31 -8 10 -13 29 -26 43 -29z m365 34 c0 -5
-4 -10 -10 -10 -5 0 -10 5 -10 10 0 6 5 10 10 10 6 0 10 -4 10 -10z m814 -6
c3 -8 2 -12 -4 -9 -6 3 -10 10 -10 16 0 14 7 11 14 -7z m-1554 -24 c17 0 40 5
51 11 27 14 48 -4 41 -36 -5 -31 -28 -32 -97 -7 -58 21 -125 19 -142 -5 -11
-14 -16 -15 -40 -3 l-28 13 30 7 c17 4 46 16 65 27 31 18 38 19 62 7 15 -8 41
-14 58 -14z m1220 -22 c0 -5 -4 -8 -10 -8 -5 0 -10 10 -10 23 0 18 2 19 10 7
5 -8 10 -18 10 -22z m-70 -30 c0 -4 -7 -8 -15 -8 -10 0 -15 10 -15 28 1 26 1
26 15 8 8 -11 15 -23 15 -28z m850 22 c0 -11 -4 -20 -10 -20 -5 0 -10 2 -10 4
0 2 -3 11 -6 20 -4 11 -1 16 10 16 9 0 16 -8 16 -20z m-1560 -29 c0 -6 -4 -13
-10 -16 -5 -3 -10 1 -10 9 0 9 5 16 10 16 6 0 10 -4 10 -9z m803 -23 c6 -22 5
-22 -8 -4 -17 22 -20 40 -6 32 5 -3 11 -16 14 -28z m374 2 c6 -23 6 -23 55
-10 30 9 44 8 65 -4 31 -17 37 -16 -75 -19 -42 -1 -62 2 -62 10 0 6 -3 18 -6
27 -4 9 -1 16 6 16 6 0 14 -9 17 -20z m558 -17 c-26 -18 -32 -7 -9 18 12 14
20 17 23 8 2 -7 -4 -18 -14 -26z m-3885 23 c0 -3 -4 -8 -10 -11 -5 -3 -10 -1
-10 4 0 6 5 11 10 11 6 0 10 -2 10 -4z m1390 -6 c0 -5 -5 -10 -11 -10 -5 0 -7
5 -4 10 3 6 8 10 11 10 2 0 4 -4 4 -10z m350 -69 c0 -36 -5 -65 -13 -73 -8 -7
-17 -20 -20 -28 -7 -14 -5 -2 9 95 12 86 24 88 24 6z m132 3 c1 -10 -2 -56 -6
-100 -7 -72 -6 -83 9 -92 10 -5 15 -15 11 -21 -4 -6 -11 -9 -16 -6 -12 7 -30
-28 -30 -58 0 -29 -7 -37 -26 -30 -13 5 -13 7 0 17 11 8 16 44 20 151 3 78 8
149 12 159 8 21 24 8 26 -20z m790 5 c10 -6 14 -16 11 -29 -4 -17 0 -20 23
-20 26 -1 27 -2 12 -13 -13 -11 -32 -11 -86 -3 -74 12 -112 35 -112 68 0 18 5
19 68 13 37 -4 74 -11 84 -16z m334 -14 c7 -29 1 -41 -15 -30 -14 8 -14 55 -1
55 5 0 12 -11 16 -25z m-1018 -17 c-2 -11 -11 -22 -20 -24 -21 -3 -22 0 -8 27
14 26 32 24 28 -3z m-2028 2 c0 -9 -62 -40 -82 -40 -18 0 4 22 36 36 38 16 46
17 46 4z m3426 -18 c6 -4 16 -16 22 -27 6 -11 12 -14 12 -7 0 6 4 12 9 12 16
0 19 -49 5 -76 -8 -14 -14 -35 -14 -45 0 -10 -5 -21 -11 -25 -9 -5 -10 6 -5
40 9 57 1 86 -24 86 -23 0 -32 -24 -24 -68 5 -25 4 -33 -5 -28 -6 4 -11 20
-11 36 0 35 -36 73 -62 64 -13 -4 -18 0 -18 16 0 17 4 19 24 14 13 -3 27 -1
30 5 8 12 55 15 72 3z m-325 -12 c5 0 9 -15 8 -32 -2 -46 9 -97 26 -122 16
-22 20 -66 6 -66 -13 0 -27 21 -40 61 -7 20 -20 40 -29 43 -9 4 -28 13 -41 20
-16 9 -32 11 -46 6 -16 -6 -22 -4 -22 6 0 8 15 16 33 20 25 5 40 1 60 -15 15
-12 28 -20 30 -18 4 3 -11 65 -22 91 -6 16 -4 18 10 13 10 -4 22 -7 27 -7z
m-2631 -46 c0 -8 -4 -14 -10 -14 -5 0 -10 9 -10 21 0 11 5 17 10 14 6 -3 10
-13 10 -21z m1723 -29 c-6 -16 -43 -21 -43 -5 0 11 32 30 42 24 4 -3 5 -11 1
-19z m1599 -7 c-8 -8 -9 -4 -5 13 4 13 8 18 11 10 2 -7 -1 -18 -6 -23z m-1032
7 c0 -13 -4 -14 -20 -5 -11 6 -20 13 -20 15 0 3 9 5 20 5 11 0 20 -7 20 -15z
m-973 -17 c-3 -8 -6 -5 -6 6 -1 11 2 17 5 13 3 -3 4 -12 1 -19z m1014 -1 c-13
-13 -26 -3 -16 12 3 6 11 8 17 5 6 -4 6 -10 -1 -17z m79 -17 c0 -16 -7 -20
-30 -20 -18 0 -30 5 -30 13 0 20 10 27 37 27 16 0 23 -6 23 -20z m-1153 -32
c-3 -7 -5 -2 -5 12 0 14 2 19 5 13 2 -7 2 -19 0 -25z m63 -8 c0 -11 -4 -20 -9
-20 -5 0 -7 9 -4 20 3 11 7 20 9 20 2 0 4 -9 4 -20z m1988 -102 l-13 -23 -3
27 c-2 15 3 37 10 50 l13 23 3 -27 c2 -15 -3 -37 -10 -50z m-578 46 c0 -8 -5
-12 -10 -9 -6 4 -8 11 -5 16 9 14 15 11 15 -7z m-4535 -4 c3 -5 -1 -10 -9 -10
-9 0 -16 5 -16 10 0 6 4 10 9 10 6 0 13 -4 16 -10z m1255 0 c0 -5 -9 -10 -20
-10 -11 0 -20 5 -20 10 0 6 9 10 20 10 11 0 20 -4 20 -10z m3668 -15 c11 -24
10 -25 -26 -25 -45 0 -67 13 -59 34 4 10 18 16 40 16 26 0 36 -6 45 -25z m574
-16 c11 -7 2 -29 -11 -29 -11 0 -21 52 -13 65 4 5 8 1 10 -10 3 -11 9 -23 14
-26z m-2456 -6 c-10 -10 -19 5 -10 18 6 11 8 11 12 0 2 -7 1 -15 -2 -18z
m-2833 10 c-7 -2 -21 -2 -30 0 -10 3 -4 5 12 5 17 0 24 -2 18 -5z m3237 -14
c0 -5 -7 -9 -15 -9 -15 0 -20 12 -9 23 8 8 24 -1 24 -14z m1970 6 c0 -31 -102
-34 -108 -2 -3 14 5 17 52 17 43 0 56 -4 56 -15z"/>
<path d="M10025 2211 c-8 -17 -13 -36 -10 -43 6 -16 -42 -71 -55 -63 -14 9
-50 -13 -50 -30 0 -11 6 -12 24 -5 21 7 26 6 31 -10 9 -27 -3 -44 -20 -30 -16
13 -39 4 -30 -11 4 -5 17 -9 30 -9 27 0 43 -19 26 -30 -7 -4 -23 -5 -37 -2
-13 2 -24 0 -24 -6 0 -16 15 -22 57 -27 26 -2 37 -8 34 -17 -2 -7 -6 -30 -9
-50 -4 -40 -17 -46 -46 -25 -16 12 -16 14 -2 26 9 8 16 24 16 36 0 18 -4 22
-20 18 -11 -3 -20 -14 -20 -24 0 -23 -37 -34 -86 -26 -31 5 -34 3 -34 -18 0
-12 6 -25 14 -28 9 -4 13 -23 11 -69 -1 -36 3 -66 9 -70 19 -13 66 -9 71 7 17
53 15 51 34 26 16 -20 21 -22 41 -11 20 11 22 17 17 61 -3 27 -2 49 3 49 10 0
30 -63 30 -92 0 -28 16 -21 30 12 21 50 8 175 -24 235 -15 27 -24 55 -21 63 7
20 23 6 30 -28 4 -17 11 -30 17 -30 19 0 47 45 48 78 0 30 19 48 21 20 0 -7 4
-4 9 7 5 13 3 26 -7 37 -23 26 -4 71 33 79 21 5 14 7 -28 8 -32 0 -58 6 -58
11 0 23 -40 8 -55 -19z m-8 -117 c-3 -3 -12 -4 -19 -1 -8 3 -5 6 6 6 11 1 17
-2 13 -5z"/>
<path d="M10233 2223 c-26 -9 -12 -20 25 -19 33 1 37 -2 40 -25 2 -19 -5 -33
-26 -51 -19 -16 -27 -30 -22 -38 4 -7 13 -9 20 -5 8 5 18 1 27 -10 7 -11 14
-15 14 -9 1 5 2 15 3 21 2 27 21 13 30 -22 6 -28 11 -33 21 -25 15 12 19 4 31
-62 3 -21 10 -38 14 -38 4 0 14 -29 21 -65 12 -62 28 -72 29 -17 0 12 5 22 10
22 6 0 16 12 23 28 6 15 17 33 24 40 15 16 17 42 3 42 -5 0 -10 7 -10 15 0 8
-5 15 -10 15 -7 0 -8 -13 -4 -35 5 -28 3 -35 -10 -35 -8 0 -21 -10 -27 -22
-11 -21 -12 -21 -26 -2 -11 14 -12 34 -7 78 4 43 3 61 -7 66 -10 7 -10 12 -1
23 9 10 8 18 -3 33 -8 10 -15 34 -15 52 0 31 -1 32 -42 32 -24 0 -59 4 -78 9
-19 4 -41 6 -47 4z"/>
<path d="M9560 2195 c0 -27 35 -48 69 -43 26 5 28 -48 2 -55 -12 -3 -24 -1
-27 4 -11 19 -22 8 -28 -30 -7 -46 24 -133 61 -169 25 -25 29 -38 12 -44 -6
-2 -9 -16 -7 -32 l3 -28 27 21 c24 19 26 26 21 71 -3 33 -2 50 6 50 6 0 11 -5
11 -12 0 -6 3 -8 6 -5 4 4 2 13 -4 20 -12 14 -17 52 -14 100 2 34 24 35 46 1
22 -32 65 -30 77 4 8 20 6 22 -10 17 -20 -6 -36 18 -25 37 4 7 -5 8 -25 3 -21
-4 -31 -3 -31 5 0 7 -7 10 -14 7 -19 -7 -32 31 -17 46 8 8 18 7 36 -3 30 -16
35 -12 38 26 2 27 -1 29 -40 32 -41 3 -43 2 -44 -25 -1 -28 -1 -28 -8 -3 -6
22 -13 25 -64 28 -55 3 -57 2 -57 -23z"/>
<path d="M9805 2200 c-3 -11 -3 -29 0 -40 5 -16 10 -18 25 -10 25 13 113 13
127 -1 16 -16 33 -2 33 25 0 37 -19 46 -101 46 -69 0 -78 -2 -84 -20z"/>
<path d="M2693 2198 c-9 -11 -8 -16 7 -26 16 -10 20 -8 25 9 4 11 4 23 1 26
-3 4 -6 -2 -7 -13 0 -18 -1 -18 -8 -1 -6 16 -9 17 -18 5z"/>
<path d="M10436 2174 c-4 -15 -2 -32 3 -37 6 -6 11 -19 11 -29 0 -11 7 -18 20
-18 11 0 20 -4 20 -10 0 -16 36 -12 51 6 11 13 9 14 -15 8 -19 -4 -31 -2 -36
7 -12 18 -3 29 25 29 15 0 26 7 30 20 3 11 17 23 31 26 45 11 13 24 -61 24
-70 0 -73 -1 -79 -26z"/>
<path d="M10620 2171 c-15 -38 -10 -65 14 -69 14 -3 17 0 13 12 -3 8 -2 18 4
22 16 10 38 -27 39 -65 0 -25 4 -32 14 -28 12 5 15 -4 14 -42 -1 -26 6 -62 15
-81 17 -34 15 -84 -4 -122 -6 -10 -5 -19 1 -23 6 -4 17 9 25 28 7 18 20 39 28
46 20 16 22 191 2 191 -10 0 -13 14 -12 52 2 47 5 53 27 58 30 7 39 36 13 44
-30 9 -58 0 -61 -20 -7 -48 -13 -64 -22 -59 -6 3 -10 21 -10 40 0 35 -12 45
-60 45 -21 0 -30 -7 -40 -29z m154 -159 c2 -4 1 -14 -4 -22 -7 -11 -12 -12
-21 -3 -6 6 -8 16 -5 22 8 13 23 14 30 3z"/>
<path d="M10952 2146 c-6 -14 -22 -26 -43 -30 -31 -6 -32 -7 -13 -21 10 -8 26
-15 35 -15 8 0 20 -5 26 -11 7 -7 12 -3 17 16 8 30 21 25 22 -8 3 -98 3 -97
28 -97 17 0 27 9 36 30 7 17 19 30 26 30 8 0 32 11 53 24 25 16 42 21 52 15
25 -15 41 -10 37 12 -5 33 -62 35 -83 3 -21 -32 -58 -32 -73 1 -6 14 -18 25
-27 25 -9 0 -15 9 -15 21 0 16 -5 20 -20 16 -11 -3 -23 -1 -26 4 -9 15 -20 10
-32 -15z"/>
<path d="M10872 2144 c4 -21 22 -23 26 -1 2 10 -3 17 -13 17 -10 0 -15 -6 -13
-16z"/>
<path d="M11268 2135 c-24 -32 -23 -61 3 -68 14 -4 19 -12 17 -24 -4 -19 -9
-20 -46 -8 -21 6 -23 4 -18 -13 5 -14 1 -21 -14 -25 -26 -7 -26 -27 0 -34 11
-3 20 -9 20 -14 0 -22 19 -6 22 18 2 23 8 28 36 30 22 2 32 -2 32 -11 0 -8 -6
-16 -12 -18 -10 -4 -10 -10 -1 -31 8 -18 18 -25 28 -21 10 4 15 0 15 -14 0
-28 17 -36 29 -15 7 13 5 23 -7 36 -16 18 -16 20 0 31 15 11 15 13 0 23 -14 9
-15 12 -3 27 11 14 11 16 -1 16 -8 0 -23 9 -33 20 -18 19 -17 20 13 31 18 6
32 17 32 24 0 7 2 19 5 27 6 16 -38 38 -74 38 -16 -1 -33 -10 -43 -25z"/>
<path d="M11516 2141 c-3 -5 -5 -29 -4 -55 2 -46 15 -60 43 -50 8 4 15 1 15
-5 0 -6 9 -11 20 -11 11 0 20 4 20 10 0 5 -6 7 -13 4 -8 -3 -20 2 -27 11 -7 8
-20 15 -29 16 -11 0 -9 3 7 9 24 10 30 48 10 68 -14 14 -35 16 -42 3z"/>
<path d="M2801 2112 c-13 -25 -14 -32 -2 -32 9 0 23 41 16 48 -2 2 -8 -5 -14
-16z"/>
<path d="M2745 2101 c-9 -16 9 -20 23 -5 10 12 10 14 -2 14 -8 0 -17 -4 -21
-9z"/>
<path d="M5342 2102 c-9 -6 -1 -13 27 -24 35 -14 42 -14 52 -2 7 8 10 17 7 20
-11 10 -73 15 -86 6z"/>
<path d="M5465 2101 c-8 -15 3 -31 21 -31 9 0 14 7 12 17 -4 20 -24 28 -33 14z"/>
<path d="M5866 2101 c-4 -5 -2 -12 3 -15 5 -4 12 -2 15 3 4 5 2 12 -3 15 -5 4
-12 2 -15 -3z"/>
<path d="M10594 2060 c0 -25 5 -40 13 -40 7 0 13 -7 13 -15 0 -18 14 -19 28
-2 7 8 3 24 -15 55 -14 23 -28 42 -33 42 -4 0 -7 -18 -6 -40z"/>
<path d="M11375 2069 c-4 -6 -4 -13 -1 -16 8 -8 36 5 36 17 0 13 -27 13 -35
-1z"/>
<path d="M10235 2050 c-3 -5 -1 -10 4 -10 6 0 11 5 11 10 0 6 -2 10 -4 10 -3
0 -8 -4 -11 -10z"/>
<path d="M10869 2053 c-16 -4 -33 -42 -24 -52 3 -2 21 4 40 15 54 29 43 53
-16 37z"/>
<path d="M2728 2031 c-21 -24 -14 -32 16 -18 13 6 21 17 19 24 -7 18 -16 16
-35 -6z"/>
<path d="M2660 2030 c0 -5 5 -10 10 -10 6 0 10 5 10 10 0 6 -4 10 -10 10 -5 0
-10 -4 -10 -10z"/>
<path d="M2910 2030 c0 -5 -8 -10 -17 -11 -10 -1 -1 -6 19 -11 30 -8 41 -7 53
5 13 13 13 16 -1 21 -24 9 -54 7 -54 -4z"/>
<path d="M10332 1975 c-12 -25 -29 -45 -37 -45 -22 0 -18 -27 4 -33 13 -3 25
3 35 17 15 20 16 19 10 -16 -7 -43 11 -53 25 -15 9 24 3 125 -9 132 -3 2 -16
-16 -28 -40z"/>
<path d="M10265 1990 c-10 -11 -15 -20 -11 -20 14 0 46 21 46 30 0 16 -16 11
-35 -10z"/>
<path d="M10946 1988 c-13 -45 -19 -151 -9 -145 6 4 14 21 18 39 l8 33 6 -45
c5 -40 7 -43 18 -25 16 28 27 95 16 95 -5 0 -15 16 -23 35 -16 41 -25 44 -34
13z"/>
<path d="M10894 1973 c-9 -15 -14 -16 -27 -5 -9 8 -21 11 -27 7 -13 -8 -13
-35 0 -35 6 0 10 -28 10 -65 0 -47 4 -65 13 -65 23 0 37 42 29 85 -6 31 -4 43
10 57 19 19 24 38 10 38 -4 0 -12 -8 -18 -17z"/>
<path d="M9798 1959 c-22 -23 -5 -35 22 -16 16 11 18 16 8 24 -9 7 -18 4 -30
-8z"/>
<path d="M10127 1974 c-10 -10 -9 -42 2 -48 5 -3 11 0 14 7 6 16 -7 50 -16 41z"/>
<path d="M10181 1957 c-6 -16 -11 -33 -11 -38 0 -5 -7 -9 -15 -9 -8 0 -18 -12
-21 -27 -4 -16 -13 -40 -21 -55 -7 -16 -10 -28 -6 -28 11 0 72 94 85 130 13
39 4 63 -11 27z"/>
<path d="M2791 1962 c-5 -2 -7 -18 -4 -35 2 -18 -2 -52 -11 -77 -9 -25 -16
-54 -16 -64 0 -11 -12 -37 -27 -59 -25 -36 -26 -42 -15 -80 10 -38 9 -43 -8
-56 -11 -7 -20 -22 -20 -33 0 -24 -26 -75 -41 -80 -12 -4 -14 -43 -6 -90 3
-16 1 -28 -4 -28 -5 0 -9 -6 -9 -14 0 -7 -7 -19 -16 -27 -12 -10 -17 -10 -23
0 -5 8 -11 -4 -15 -31 -3 -23 -10 -70 -16 -103 -35 -203 -49 -362 -31 -351 15
9 31 -18 21 -34 -6 -8 -10 -25 -10 -37 0 -12 -4 -24 -9 -27 -5 -4 -7 3 -4 14
3 11 0 20 -6 20 -6 0 -11 -10 -12 -22 0 -13 -2 -36 -3 -53 -2 -16 1 -38 6 -47
5 -11 1 -44 -12 -90 -11 -40 -25 -100 -31 -133 -6 -33 -19 -97 -30 -142 -10
-45 -19 -96 -19 -113 0 -17 -4 -39 -9 -49 -6 -10 -13 -41 -17 -69 l-7 -52 457
0 c251 0 456 4 456 8 0 17 -13 21 -32 11 -38 -20 -30 0 10 25 45 28 47 35 78
231 13 84 15 127 8 179 -9 70 -31 103 -31 46 0 -31 -17 -59 -29 -47 -4 3 -1
21 6 38 12 28 11 33 -3 44 -9 7 -18 23 -18 36 -1 16 -3 19 -6 7 -4 -14 -8 -15
-24 -5 -10 6 -19 17 -19 23 0 17 57 67 72 62 7 -3 21 6 32 20 16 20 17 25 5
33 -9 5 -10 9 -2 9 6 0 23 21 38 48 23 40 27 60 28 132 1 69 -2 90 -18 114
-21 31 -19 32 -40 -29 -7 -20 -7 -19 -15 2 -11 28 -48 20 -56 -13 -3 -13 -12
-24 -19 -24 -16 0 -28 -27 -15 -35 4 -3 16 2 24 11 21 21 46 11 46 -18 0 -29
-64 -98 -91 -98 -23 0 -24 9 -4 36 19 25 19 34 -2 32 -46 -4 -54 1 -47 30 7
26 6 27 -13 9 -27 -24 -53 -22 -46 3 8 30 -15 25 -48 -11 -31 -33 -38 -69 -14
-69 8 0 15 -2 15 -5 0 -20 -35 -77 -69 -114 -45 -48 -48 -56 -26 -65 21 -8 19
-35 -2 -42 -10 -3 -26 -10 -35 -15 -11 -5 -19 -5 -23 1 -3 6 -19 10 -36 10
-16 0 -29 3 -29 8 0 16 32 52 46 52 8 0 14 7 14 15 0 8 -4 15 -10 15 -20 0 -9
21 15 30 14 5 28 17 31 25 4 8 12 15 20 15 9 0 14 11 14 28 0 16 3 32 7 36 8
7 33 76 33 90 0 5 -11 -1 -25 -14 -22 -21 -25 -21 -31 -6 -7 19 5 36 28 40 8
1 22 8 31 16 9 8 24 21 32 29 17 14 14 54 -7 78 -16 20 -26 7 -34 -42 -7 -49
-24 -71 -24 -33 0 14 -6 32 -13 42 -18 24 -10 64 14 77 23 12 25 29 4 29 -19
0 -19 24 0 40 8 7 13 16 10 20 -10 16 7 41 25 35 10 -3 30 0 44 6 38 17 54 0
31 -34 -14 -22 -20 -24 -47 -16 -39 11 -51 3 -37 -22 7 -13 16 -18 29 -14 13
4 26 -4 44 -27 l26 -33 0 29 c0 16 8 35 18 42 13 9 17 27 17 76 0 56 3 64 23
73 29 13 28 19 -5 34 -31 14 -39 6 -48 -51 -7 -39 -29 -50 -53 -26 -8 8 -15 8
-26 -1 -12 -10 -14 -9 -9 8 5 21 10 23 47 25 23 1 34 26 12 26 -20 0 -21 36
-1 56 19 20 19 68 0 84 -9 7 -13 20 -10 29 3 10 -2 26 -10 37 -19 25 -19 53 0
60 9 4 15 19 15 39 0 27 5 34 25 39 14 4 25 10 25 15 0 13 -28 33 -38 28 -4
-3 -14 -2 -21 2 -18 11 5 89 35 116 23 21 37 62 25 69 -4 3 -15 -4 -24 -15
-24 -27 -41 -24 -33 5 5 19 1 26 -13 31 -26 8 -51 -4 -51 -25 0 -22 -28 -30
-60 -16 -20 9 -25 18 -24 46 l2 35 -69 0 c-38 0 -73 -1 -78 -3z m265 -129 c-9
-36 -14 -64 -15 -82 -1 -10 -11 -12 -41 -8 -33 4 -42 2 -50 -14 -6 -10 -17
-19 -25 -19 -8 0 -15 -4 -15 -10 0 -9 -53 -41 -67 -40 -26 2 33 140 59 140 9
0 20 -5 23 -11 4 -5 12 -8 18 -6 7 2 17 -3 23 -12 11 -14 15 -14 39 -1 23 12
26 19 20 46 -4 22 -1 34 7 37 26 11 30 7 24 -20z m-386 -548 c0 -8 -4 -15 -10
-15 -5 0 -10 7 -10 15 0 8 5 15 10 15 6 0 10 -7 10 -15z m-20 -92 c0 -7 -4
-13 -10 -13 -5 0 -10 12 -10 28 0 21 2 24 10 12 5 -8 10 -21 10 -27z m-18 -65
c-15 -15 -26 -4 -18 18 5 13 9 15 18 6 9 -9 9 -15 0 -24z m298 8 c0 -8 -4 -18
-10 -21 -5 -3 -10 3 -10 14 0 12 5 21 10 21 6 0 10 -6 10 -14z m-290 -107 c0
-5 -18 -9 -40 -9 -44 0 -45 2 -29 29 11 16 15 17 40 4 16 -8 29 -19 29 -24z
m30 -174 c0 -8 -7 -15 -15 -15 -8 0 -15 7 -15 15 0 8 7 15 15 15 8 0 15 -7 15
-15z m220 -23 c0 -10 -11 -29 -25 -42 -29 -27 -32 -15 -7 29 19 35 32 40 32
13z m262 -14 c2 -17 9 -23 26 -22 26 1 27 -8 8 -39 -19 -30 -30 -97 -16 -97 5
0 10 5 10 10 0 6 4 10 10 10 19 0 4 -39 -27 -74 -18 -19 -43 -57 -57 -85 -15
-28 -38 -58 -54 -68 -15 -10 -31 -22 -35 -28 -5 -6 -6 -1 -2 10 4 11 12 34 17
50 6 17 24 43 39 58 31 31 82 117 70 117 -4 0 -34 -28 -66 -61 -33 -34 -61
-56 -63 -50 -2 7 3 20 11 29 20 24 31 62 17 62 -6 0 -8 5 -4 11 5 8 9 8 14 -1
9 -14 46 5 55 29 8 21 -4 27 -27 12 -20 -12 -20 -11 -14 25 7 36 25 72 54 107
20 23 30 22 34 -5z m-338 -13 c-4 -8 -8 -15 -10 -15 -2 0 -4 7 -4 15 0 8 4 15
10 15 5 0 7 -7 4 -15z m129 -5 c-6 -22 -23 -38 -23 -21 0 17 12 41 20 41 5 0
6 -9 3 -20z m-287 -15 c9 -22 -13 -44 -36 -38 -19 5 -27 33 -13 46 12 13 44 7
49 -8z m691 -37 c-3 -7 -5 -2 -5 12 0 14 2 19 5 13 2 -7 2 -19 0 -25z m-57 15
c0 -5 -5 -15 -10 -23 -8 -12 -10 -11 -10 8 0 12 5 22 10 22 6 0 10 -3 10 -7z
m-370 -13 c0 -5 -5 -10 -11 -10 -5 0 -7 5 -4 10 3 6 8 10 11 10 2 0 4 -4 4
-10z m332 -62 c-15 -15 -26 -4 -18 18 5 13 9 15 18 6 9 -9 9 -15 0 -24z m-454
-28 c8 0 13 -3 9 -6 -10 -10 -48 7 -40 19 5 8 8 8 11 -1 2 -7 11 -12 20 -12z
m422 -85 c-7 -9 -15 -13 -19 -10 -3 3 1 10 9 15 21 14 24 12 10 -5z m22 -88
c13 -20 -5 -37 -38 -37 -38 0 -38 -1 -25 34 8 19 15 23 33 19 13 -4 26 -11 30
-16z m-602 -17 c0 -5 -4 -10 -10 -10 -5 0 -10 5 -10 10 0 6 5 10 10 10 6 0 10
-4 10 -10z m640 -100 c0 -5 -4 -10 -10 -10 -5 0 -10 5 -10 10 0 6 5 10 10 10
6 0 10 -4 10 -10z m-170 -134 c0 -14 5 -28 10 -31 15 -9 12 -25 -6 -32 -9 -3
-20 0 -25 8 -10 17 -12 63 -2 72 13 14 23 6 23 -17z m170 -16 c0 -11 -4 -20
-10 -20 -5 0 -10 -11 -10 -24 0 -13 -7 -29 -16 -36 -8 -8 -14 -25 -14 -39 3
-40 0 -47 -11 -29 -5 9 -16 15 -23 12 -29 -11 -23 25 10 57 19 18 36 47 40 66
7 36 34 46 34 13z"/>
<path d="M3120 695 c0 -8 2 -15 4 -15 2 0 6 7 10 15 3 8 1 15 -4 15 -6 0 -10
-7 -10 -15z"/>
<path d="M11080 1960 c0 -5 4 -10 9 -10 6 0 13 5 16 10 3 6 -1 10 -9 10 -9 0
-16 -4 -16 -10z"/>
<path d="M2653 1948 c-6 -7 -13 -36 -16 -65 -5 -42 -3 -51 8 -47 8 3 17 21 21
40 3 19 10 37 15 40 5 3 9 14 9 25 0 21 -22 26 -37 7z"/>
<path d="M10232 1947 c-7 -8 -13 -27 -14 -43 -1 -18 -17 -46 -42 -74 -63 -70
-106 -124 -106 -134 0 -7 56 -5 90 5 8 2 15 -2 15 -11 0 -8 -9 -16 -20 -18
-11 -2 -29 -7 -40 -12 -11 -4 -28 -11 -37 -14 -11 -3 -18 -15 -18 -29 0 -14
-7 -41 -15 -60 -16 -39 -15 -41 32 -51 31 -7 32 -7 38 37 4 25 4 59 0 77 -7
31 -6 31 27 28 37 -3 39 -12 14 -70 -22 -51 -5 -48 25 5 17 30 24 59 25 105 1
34 -1 62 -4 62 -3 0 -16 -9 -28 -21 -23 -22 -44 -19 -44 7 0 8 8 18 17 21 10
4 29 20 42 36 14 16 31 36 39 43 8 8 11 21 8 30 -3 8 1 29 10 46 17 33 6 60
-14 35z"/>
<path d="M11120 1945 c0 -9 9 -15 21 -15 18 0 19 2 9 15 -7 8 -16 15 -21 15
-5 0 -9 -7 -9 -15z"/>
<path d="M2961 1924 c0 -11 3 -14 6 -6 3 7 2 16 -1 19 -3 4 -6 -2 -5 -13z"/>
<path d="M3115 1930 c-3 -5 1 -10 9 -10 9 0 16 5 16 10 0 6 -4 10 -9 10 -6 0
-13 -4 -16 -10z"/>
<path d="M10550 1927 c0 -8 -7 -20 -15 -27 -8 -7 -15 -21 -15 -32 0 -12 -6
-18 -17 -16 -12 2 -18 -3 -18 -17 0 -25 27 -27 80 -4 21 10 42 16 45 14 4 -2
6 -36 5 -75 -2 -54 1 -70 11 -70 8 0 14 11 14 26 0 22 2 24 15 14 8 -7 21 -10
29 -7 12 5 13 13 6 38 -5 18 -14 37 -20 43 -15 15 -12 46 5 52 8 4 15 13 15
21 0 8 -5 11 -11 8 -5 -4 -20 1 -31 12 -12 10 -18 12 -14 5 9 -15 -2 -52 -15
-52 -14 0 -49 38 -49 54 0 8 -4 18 -10 21 -5 3 -10 0 -10 -8z"/>
<path d="M10587 1925 c6 -17 25 -15 31 3 2 7 -5 12 -17 12 -14 0 -19 -5 -14
-15z"/>
<path d="M11438 1918 c-3 -7 -2 -38 1 -68 l6 -55 23 33 c13 17 29 32 37 32 14
0 27 25 18 34 -4 3 -15 6 -25 6 -10 0 -21 7 -24 15 -7 18 -30 20 -36 3z"/>
<path d="M11590 1895 c0 -8 7 -15 15 -15 8 0 15 4 15 9 0 5 -7 11 -15 15 -9 3
-15 0 -15 -9z"/>
<path d="M9747 1881 c-3 -11 -1 -23 3 -26 14 -8 22 13 12 31 -8 14 -10 14 -15
-5z"/>
<path d="M11170 1875 c0 -8 4 -15 9 -15 5 0 11 7 15 15 3 9 0 15 -9 15 -8 0
-15 -7 -15 -15z"/>
<path d="M10390 1871 c0 -5 -9 -11 -20 -14 -21 -5 -25 -35 -11 -70 7 -18 8
-18 30 0 28 23 40 93 16 93 -8 0 -15 -4 -15 -9z"/>
<path d="M10291 1847 c-6 -12 -25 -30 -42 -39 -17 -10 -27 -22 -24 -28 4 -7
14 -6 28 2 12 7 29 11 38 10 24 -4 54 45 38 64 -16 19 -24 18 -38 -9z"/>
<path d="M10812 1840 c-10 -17 -10 -20 3 -20 8 0 15 9 15 20 0 11 -1 20 -3 20
-1 0 -8 -9 -15 -20z"/>
<path d="M11208 1816 c-28 -10 -41 -49 -15 -43 8 1 12 -16 12 -59 0 -37 5 -67
14 -77 17 -21 31 -22 31 -2 0 8 4 15 9 15 5 0 12 15 16 33 4 17 9 40 12 50 4
16 1 15 -19 -5 l-23 -23 -3 28 c-4 34 5 47 18 27 6 -9 10 -10 10 -3 0 7 -7 16
-17 21 -9 6 -14 16 -10 25 8 22 -2 26 -35 13z"/>
<path d="M9730 1811 c0 -5 7 -16 15 -25 8 -8 15 -21 15 -28 0 -10 -3 -9 -10 2
-6 10 -12 12 -20 4 -7 -7 -5 -23 7 -52 22 -51 38 -55 29 -7 -6 28 -4 35 8 35
21 0 32 46 16 65 -14 16 -60 21 -60 6z"/>
<path d="M11497 1801 c-3 -11 1 -22 9 -25 16 -6 28 10 20 29 -8 21 -23 18 -29
-4z"/>
<path d="M1780 1802 c0 -5 14 -9 30 -9 17 0 30 4 30 9 0 4 -13 8 -30 8 -16 0
-30 -4 -30 -8z"/>
<path d="M11587 1803 c-3 -5 -2 -24 2 -43 l8 -35 7 33 c8 32 -5 65 -17 45z"/>
<path d="M2625 1790 c-9 -15 3 -77 16 -86 21 -12 32 13 22 52 -9 38 -26 54
-38 34z"/>
<path d="M9597 1747 c-20 -18 -37 -38 -37 -45 0 -8 -10 -22 -22 -31 -12 -10
-18 -23 -14 -29 10 -17 46 -15 52 3 4 8 14 15 23 15 9 0 23 6 30 13 11 10 14
10 18 0 7 -19 31 -16 35 5 9 45 -20 86 -36 50 -3 -7 -3 -1 0 13 8 39 -6 41
-49 6z"/>
<path d="M11390 1756 c-12 -33 -12 -36 -1 -36 9 0 22 52 15 59 -2 2 -8 -8 -14
-23z"/>
<path d="M10475 1760 c-3 -5 -2 -10 4 -10 5 0 13 5 16 10 3 6 2 10 -4 10 -5 0
-13 -4 -16 -10z"/>
<path d="M9517 1735 c-25 -26 -42 -75 -25 -75 5 0 14 14 19 30 6 17 14 30 18
30 3 0 12 9 19 20 17 28 0 25 -31 -5z"/>
<path d="M10880 1745 c0 -8 2 -15 4 -15 2 0 6 7 10 15 3 8 1 15 -4 15 -6 0
-10 -7 -10 -15z"/>
<path d="M10953 1753 c-23 -9 -15 -35 10 -31 12 2 22 9 22 17 0 16 -14 22 -32
14z"/>
<path d="M11526 1744 c-4 -10 -2 -22 3 -27 7 -7 13 -5 17 7 4 10 2 22 -3 27
-7 7 -13 5 -17 -7z"/>
<path d="M1835 1732 c-9 -10 7 -22 29 -22 12 0 27 -5 32 -10 14 -14 44 -2 44
16 0 8 -3 14 -7 15 -63 4 -94 4 -98 1z"/>
<path d="M10369 1733 c-17 -4 -29 -32 -29 -69 0 -18 5 -20 28 -16 l27 5 -20
-23 c-15 -17 -17 -24 -7 -27 7 -3 19 -20 27 -39 22 -53 35 -41 19 19 -7 28
-14 76 -14 105 0 28 -3 51 -7 51 -5 -1 -15 -3 -24 -6z"/>
<path d="M1760 1715 c0 -8 2 -15 4 -15 2 0 6 7 10 15 3 8 1 15 -4 15 -6 0 -10
-7 -10 -15z"/>
<path d="M10520 1707 c0 -12 -7 -33 -16 -46 -13 -18 -18 -20 -25 -10 -6 10 -9
8 -9 -8 0 -13 4 -23 9 -23 10 0 14 -222 5 -282 -5 -34 -8 -37 -25 -28 -20 11
-25 40 -10 55 6 6 4 17 -5 29 -13 19 -14 19 -14 -6 0 -21 -5 -25 -25 -25 -25
0 -33 11 -15 22 16 10 11 45 -10 72 -11 14 -23 47 -26 74 -6 46 -24 69 -24 31
0 -10 -18 -36 -41 -57 -54 -53 -84 -104 -81 -136 2 -15 -2 -30 -9 -34 -8 -6
-10 1 -7 24 3 18 1 34 -4 37 -12 8 5 34 56 87 24 26 55 67 67 91 l22 45 -26
31 -27 31 -20 -33 c-11 -18 -25 -50 -31 -70 -5 -21 -12 -38 -15 -38 -3 0 -2
10 1 21 15 46 -21 12 -51 -49 -21 -43 -34 -58 -41 -51 -6 6 -28 9 -49 7 -37
-3 -39 -5 -42 -42 -3 -35 -1 -38 17 -33 11 3 25 -1 31 -8 9 -11 5 -17 -17 -29
-16 -8 -34 -26 -41 -40 -15 -32 -13 -33 165 -41 110 -6 140 -10 137 -20 -6
-14 30 -30 45 -20 6 3 8 12 5 19 -7 17 34 26 66 14 14 -5 45 -3 85 7 45 12 88
14 161 10 194 -11 182 -17 186 95 2 50 0 90 -4 90 -9 0 -38 -96 -38 -126 0
-12 -6 -27 -14 -33 -20 -16 -46 22 -46 67 0 18 -7 46 -15 62 -14 27 -14 29 1
23 12 -4 15 -1 12 13 -2 12 -11 19 -25 18 -12 -1 -24 5 -27 13 -4 8 -1 11 5 7
12 -7 29 12 29 34 0 20 -80 15 -96 -5 -9 -13 -16 -15 -24 -7 -8 8 -7 14 5 24
17 14 19 29 6 49 -8 12 -12 13 -26 1 -13 -11 -20 -11 -40 0 -13 7 -21 18 -19
25 3 6 -1 25 -7 41 -7 16 -11 35 -10 42 1 6 -3 12 -9 12 -5 0 -10 -10 -10 -23z
m70 -172 c0 -2 -9 -1 -21 2 -12 4 -18 11 -15 20 3 8 6 20 6 26 0 7 7 -1 15
-17 8 -15 15 -30 15 -31z m90 -29 c0 -7 -10 -16 -21 -19 -17 -5 -20 -11 -17
-31 6 -29 -16 -37 -26 -10 -4 9 -13 14 -21 10 -31 -12 -13 14 19 28 18 8 37
19 40 25 10 15 26 14 26 -3z m-510 -117 c0 -4 -8 -17 -18 -30 -10 -13 -22 -33
-27 -44 -8 -19 -8 -19 -12 -2 -3 11 -2 33 1 50 5 26 11 32 31 32 14 0 25 -3
25 -6z m530 -31 c-1 -26 -3 -30 -10 -16 -6 9 -7 23 -4 32 9 25 14 19 14 -16z
m-160 12 c0 -5 -4 -10 -10 -10 -5 0 -10 5 -10 10 0 6 5 10 10 10 6 0 10 -4 10
-10z m35 1 c3 -5 1 -12 -4 -15 -5 -3 -11 1 -15 9 -6 16 9 21 19 6z m47 -6 c0
-5 -5 -11 -11 -13 -6 -2 -11 4 -11 13 0 9 5 15 11 13 6 -2 11 -8 11 -13z"/>
<path d="M10994 1708 c-4 -6 1 -17 12 -25 15 -11 20 -11 32 1 8 8 11 19 8 25
-9 14 -43 14 -52 -1z"/>
<path d="M11149 1714 c-3 -26 4 -70 13 -81 21 -26 27 -12 13 33 -14 46 -24 65
-26 48z"/>
<path d="M10706 1701 c-4 -6 -13 -8 -21 -5 -17 7 -28 -29 -23 -72 4 -40 43
-46 52 -8 8 31 20 24 21 -13 0 -15 6 -28 13 -31 16 -5 16 42 -2 93 -14 40 -29
54 -40 36z"/>
<path d="M10582 1676 c-9 -20 -10 -32 -3 -39 13 -13 24 12 19 44 -3 22 -4 22
-16 -5z"/>
<path d="M3280 1670 c0 -5 5 -10 10 -10 6 0 10 5 10 10 0 6 -4 10 -10 10 -5 0
-10 -4 -10 -10z"/>
<path d="M11110 1638 c0 -26 4 -58 10 -72 6 -17 6 -26 0 -26 -6 0 -10 -11 -10
-25 0 -14 -6 -25 -13 -25 -15 0 -57 41 -57 56 0 19 -49 57 -64 51 -12 -5 -16
1 -16 23 0 17 -4 30 -9 30 -18 0 -21 -50 -5 -91 16 -38 16 -43 0 -69 -9 -17
-18 -57 -20 -99 -2 -39 -9 -77 -15 -85 -15 -18 12 -23 142 -25 116 -1 135 5
117 39 -6 12 -9 32 -6 43 3 16 -4 31 -25 51 -34 34 -39 66 -10 66 23 0 40 22
23 28 -15 5 -16 32 -2 32 6 0 10 11 10 25 0 14 -6 25 -13 25 -9 0 -12 9 -10
28 3 15 -3 36 -11 47 -14 19 -15 17 -16 -27z m-92 -150 c-5 -15 -23 -11 -26 6
-2 11 2 14 13 10 9 -4 14 -11 13 -16z m31 -139 c-18 -11 -56 -11 -63 0 -8 13
11 18 47 13 21 -3 25 -7 16 -13z"/>
<path d="M11278 1643 c-45 -72 -48 -78 -46 -103 3 -23 6 -25 53 -22 31 2 55
10 63 20 6 9 13 12 13 6 1 -5 2 -16 3 -24 0 -8 8 -15 16 -15 9 0 13 6 11 15
-3 8 -4 27 -3 42 1 15 -5 29 -13 32 -8 3 -22 23 -31 46 -9 22 -22 40 -29 40
-7 0 -24 -17 -37 -37z"/>
<path d="M0 1536 l0 -134 93 -4 c50 -2 97 -2 104 0 6 2 17 17 23 33 9 21 19
29 37 29 21 0 22 3 13 20 -14 26 -56 54 -69 46 -7 -5 -6 -15 1 -31 16 -35 2
-43 -25 -16 -15 16 -18 25 -9 28 6 3 9 9 6 15 -4 6 0 15 7 20 10 7 5 8 -16 3
-16 -4 -31 -10 -33 -15 -2 -5 -13 -5 -25 -1 -12 4 -27 6 -34 4 -6 -2 -14 1
-18 7 -4 7 4 9 25 5 18 -3 41 -3 53 1 20 6 20 7 -5 20 -19 10 -25 19 -21 34 3
11 -2 31 -11 45 -14 22 -19 23 -36 13 -16 -10 -24 -10 -40 0 -20 12 -20 10
-20 -122z"/>
<path d="M9939 1620 c-29 -47 -59 -69 -45 -33 4 9 1 20 -6 25 -20 12 -28 10
-28 -9 0 -15 -1 -15 -18 1 -18 15 -21 14 -57 -21 l-38 -37 7 29 c6 28 5 29 -8
12 -27 -35 -10 -45 75 -45 44 0 85 -5 92 -10 7 -6 18 -7 26 -3 8 5 27 5 42 1
34 -10 36 -8 45 57 4 33 2 53 -5 57 -6 4 -14 1 -17 -8 -3 -8 -12 -17 -20 -20
-13 -5 -13 -2 1 16 19 28 19 38 0 38 -8 0 -29 -22 -46 -50z"/>
<path d="M10427 1657 c-6 -15 7 -84 17 -94 9 -10 7 80 -3 95 -7 11 -9 11 -14
-1z"/>
<path d="M11060 1655 c0 -31 25 -95 38 -95 9 0 10 5 3 18 -5 10 -9 24 -9 32 3
40 -3 60 -17 60 -8 0 -15 -7 -15 -15z"/>
<path d="M11477 1664 c-21 -22 19 -104 43 -89 10 6 25 73 19 80 -9 9 -55 15
-62 9z"/>
<path d="M9383 1648 c-6 -7 -13 -39 -17 -70 -6 -57 -6 -58 19 -58 22 0 25 5
31 50 4 29 12 50 19 50 9 0 10 -9 2 -40 -6 -22 -9 -41 -6 -43 2 -2 63 -2 136
1 147 5 153 8 128 69 -15 35 -16 35 -34 19 -15 -14 -24 -15 -40 -7 -24 13 -34
14 -27 3 3 -5 -16 -7 -43 -4 -30 2 -51 0 -55 -7 -13 -20 -28 -11 -24 13 4 20
0 25 -25 30 -43 9 -53 8 -64 -6z"/>
<path d="M10790 1606 c0 -9 9 -25 20 -36 17 -17 21 -18 26 -6 10 26 -1 51 -24
54 -15 2 -22 -2 -22 -12z"/>
<path d="M11192 1590 c0 -14 2 -19 5 -12 2 6 2 18 0 25 -3 6 -5 1 -5 -13z"/>
<path d="M10872 1585 c0 -35 13 -71 21 -58 4 7 1 27 -7 45 -10 23 -14 27 -14
13z"/>
<path d="M10797 1488 c0 -29 2 -71 2 -93 2 -54 16 -29 31 55 10 58 10 65 -6
77 -27 20 -29 17 -27 -39z"/>
<path d="M11412 1514 c1 -9 9 -19 16 -22 9 -3 13 2 10 14 -1 9 -9 19 -16 22
-9 3 -13 -2 -10 -14z"/>
<path d="M2597 1503 c-10 -10 -8 -103 2 -103 7 0 41 86 41 104 0 8 -35 7 -43
-1z"/>
<path d="M10434 1484 c3 -9 6 -18 6 -20 0 -2 4 -4 9 -4 5 0 7 9 4 20 -3 11
-10 20 -15 20 -6 0 -7 -7 -4 -16z"/>
<path d="M10401 1474 c0 -11 3 -14 6 -6 3 7 2 16 -1 19 -3 4 -6 -2 -5 -13z"/>
<path d="M11211 1431 c11 -13 19 -31 20 -40 0 -12 4 -11 16 7 10 14 26 22 44
22 15 0 31 4 34 10 7 11 -20 18 -86 22 l-47 3 19 -24z"/>
<path d="M11408 1452 c-33 -4 -33 -6 -10 -31 9 -11 24 -28 32 -38 14 -16 15
-15 18 21 4 45 -3 53 -40 48z"/>
<path d="M442 1408 c7 -19 38 -22 38 -4 0 10 -9 16 -21 16 -12 0 -19 -5 -17
-12z"/>
<path d="M735 1390 c-3 -5 1 -10 10 -10 9 0 13 5 10 10 -3 6 -8 10 -10 10 -2
0 -7 -4 -10 -10z"/>
<path d="M945 1390 c-4 -6 9 -10 31 -10 42 0 42 4 2 14 -15 3 -30 2 -33 -4z"/>
<path d="M3216 1375 c4 -8 15 -15 25 -15 23 0 25 16 3 24 -25 10 -34 7 -28 -9z"/>
<path d="M11207 1374 c-3 -5 -8 -26 -12 -46 -6 -30 -4 -37 13 -42 18 -6 252
10 260 18 2 3 -1 13 -7 24 -10 18 -14 19 -48 7 -22 -8 -61 -11 -97 -8 -49 4
-65 10 -82 30 -12 14 -24 21 -27 17z"/>
<path d="M3555 1350 c-4 -6 6 -10 22 -10 22 0 25 2 13 10 -19 12 -27 12 -35 0z"/>
<path d="M3688 1343 c28 -2 76 -2 105 0 28 2 5 3 -53 3 -58 0 -81 -1 -52 -3z"/>
<path d="M3943 1343 c15 -2 37 -2 50 0 12 2 0 4 -28 4 -27 0 -38 -2 -22 -4z"/>
<path d="M4180 1346 c0 -8 61 -12 66 -4 3 4 -11 8 -30 8 -20 0 -36 -2 -36 -4z"/>
<path d="M8680 1326 c0 -8 4 -17 10 -21 5 -3 7 -12 3 -20 -4 -12 6 -15 53 -14
l59 1 -37 15 c-20 8 -38 24 -41 34 -6 22 -47 26 -47 5z"/>
<path d="M11493 1324 c-8 -21 13 -42 28 -27 13 13 5 43 -11 43 -6 0 -13 -7
-17 -16z"/>
<path d="M3310 1316 c0 -8 5 -18 10 -21 6 -3 10 3 10 14 0 12 -4 21 -10 21 -5
0 -10 -6 -10 -14z"/>
<path d="M5543 1323 c15 -2 37 -2 50 0 12 2 0 4 -28 4 -27 0 -38 -2 -22 -4z"/>
<path d="M5728 1323 c6 -2 18 -2 25 0 6 3 1 5 -13 5 -14 0 -19 -2 -12 -5z"/>
<path d="M6068 1323 c6 -2 18 -2 25 0 6 3 1 5 -13 5 -14 0 -19 -2 -12 -5z"/>
<path d="M6440 1320 c-43 -7 -44 -7 -10 -9 19 -1 46 -5 60 -7 31 -6 70 3 70
16 0 11 -50 11 -120 0z"/>
<path d="M6600 1310 c0 -5 9 -10 20 -10 11 0 20 5 20 10 0 6 -9 10 -20 10 -11
0 -20 -4 -20 -10z"/>
<path d="M6785 1310 c-3 -5 -1 -10 4 -10 6 0 11 5 11 10 0 6 -2 10 -4 10 -3 0
-8 -4 -11 -10z"/>
<path d="M6863 1303 c9 -2 25 -2 35 0 9 3 1 5 -18 5 -19 0 -27 -2 -17 -5z"/>
<path d="M7193 1303 c15 -2 39 -2 55 0 15 2 2 4 -28 4 -30 0 -43 -2 -27 -4z"/>
<path d="M8063 1303 c9 -2 23 -2 30 0 6 3 -1 5 -18 5 -16 0 -22 -2 -12 -5z"/>
<path d="M3214 1275 c-4 -9 -2 -21 4 -27 15 -15 44 -1 40 19 -4 23 -36 29 -44
8z"/>
<path d="M10915 1240 c-3 -6 1 -13 11 -17 15 -5 14 -8 -6 -15 -29 -11 -19 -22
13 -14 29 7 44 36 25 48 -18 11 -36 10 -43 -2z"/>
<path d="M11000 1215 c0 -8 5 -15 10 -15 6 0 10 7 10 15 0 8 -4 15 -10 15 -5
0 -10 -7 -10 -15z"/>
<path d="M3200 1209 c0 -5 5 -7 10 -4 6 3 10 8 10 11 0 2 -4 4 -10 4 -5 0 -10
-5 -10 -11z"/>
<path d="M10740 1180 c0 -22 1 -23 24 -14 23 9 20 34 -4 34 -13 0 -20 -7 -20
-20z"/>
<path d="M3263 1148 c-19 -5 -33 -15 -33 -23 0 -8 -4 -15 -10 -15 -12 0 -13
-37 -1 -44 5 -3 7 -15 4 -27 -5 -17 -2 -20 13 -17 11 2 19 12 20 23 1 11 2 37
3 58 1 30 5 37 22 37 14 0 19 -5 16 -15 -7 -17 11 -31 24 -18 6 6 3 17 -8 30
-15 16 -24 18 -50 11z"/>
<path d="M3200 1131 c0 -7 -4 -9 -10 -6 -13 8 -25 -44 -12 -57 7 -7 14 1 21
28 6 21 8 40 6 43 -3 2 -5 -1 -5 -8z"/>
<path d="M10910 1073 c-60 -5 -87 -19 -49 -27 13 -3 79 -7 147 -10 107 -4 127
-3 153 13 24 15 27 20 14 25 -17 6 -164 5 -265 -1z"/>
<path d="M2128 553 c6 -2 18 -2 25 0 6 3 1 5 -13 5 -14 0 -19 -2 -12 -5z"/>
<path d="M5440 500 c0 -12 8 -12 35 0 18 8 17 9 -7 9 -16 1 -28 -3 -28 -9z"/>
<path d="M3744 405 c22 -17 62 -20 70 -6 7 10 -27 21 -64 21 -24 -1 -24 -1 -6
-15z"/>
<path d="M4683 393 c9 -2 23 -2 30 0 6 3 -1 5 -18 5 -16 0 -22 -2 -12 -5z"/>
<path d="M11023 393 c9 -2 25 -2 35 0 9 3 1 5 -18 5 -19 0 -27 -2 -17 -5z"/>
<path d="M5270 380 c8 -5 29 -10 45 -10 23 0 27 3 15 10 -8 5 -28 10 -45 10
-23 0 -27 -3 -15 -10z"/>
<path d="M5880 130 c0 -5 9 -10 20 -10 11 0 20 5 20 10 0 6 -9 10 -20 10 -11
0 -20 -4 -20 -10z"/>
<path d="M10880 23 c-14 -3 -29 -9 -34 -14 -6 -5 39 -9 114 -9 68 0 121 3 117
6 -11 11 -161 24 -197 17z"/>
</g>
</svg>
